MasterSet_Kanji-w1000.00.ufo
<glyph name="c1177" format="1">
	<advance width="1000"/>
	<outline>
		<contour>
			<point x="279" y="152" type="line"/>
			<point x="279" y="60" type="line"/>
			<point x="279" y="-49"/>
			<point x="312" y="-84"/>
			<point x="453" y="-84" type="curve"/>
			<point x="481" y="-84"/>
			<point x="570" y="-84"/>
			<point x="600" y="-84" type="curve"/>
			<point x="701" y="-84"/>
			<point x="738" y="-55"/>
			<point x="753" y="58" type="curve"/>
			<point x="716" y="65"/>
			<point x="659" y="84"/>
			<point x="631" y="103" type="curve"/>
			<point x="626" y="41"/>
			<point x="620" y="31"/>
			<point x="586" y="31" type="curve"/>
			<point x="561" y="31"/>
			<point x="490" y="31"/>
			<point x="471" y="31" type="curve"/>
			<point x="428" y="31"/>
			<point x="420" y="34"/>
			<point x="420" y="62" type="curve"/>
			<point x="420" y="152" type="line"/>
		</contour>
		<contour>
			<point x="377" y="150" type="line"/>
			<point x="432" y="127"/>
			<point x="502" y="87"/>
			<point x="535" y="59" type="curve"/>
			<point x="623" y="148" type="line"/>
			<point x="585" y="176"/>
			<point x="513" y="212"/>
			<point x="459" y="231" type="curve"/>
		</contour>
		<contour>
			<point x="710" y="121" type="line"/>
			<point x="768" y="64"/>
			<point x="832" y="-17"/>
			<point x="858" y="-71" type="curve"/>
			<point x="979" y="-2" type="line"/>
			<point x="949" y="55"/>
			<point x="881" y="130"/>
			<point x="823" y="183" type="curve"/>
		</contour>
		<contour>
			<point x="145" y="169" type="line"/>
			<point x="123" y="102"/>
			<point x="78" y="39"/>
			<point x="19" y="0" type="curve"/>
			<point x="132" y="-77" type="line"/>
			<point x="201" y="-28"/>
			<point x="240" y="47"/>
			<point x="267" y="125" type="curve"/>
		</contour>
		<contour>
			<point x="114" y="809" type="line"/>
			<point x="114" y="698" type="line"/>
			<point x="884" y="698" type="line"/>
			<point x="884" y="809" type="line"/>
		</contour>
		<contour>
			<point x="64" y="651" type="line"/>
			<point x="64" y="540" type="line"/>
			<point x="938" y="540" type="line"/>
			<point x="938" y="651" type="line"/>
		</contour>
		<contour>
			<point x="426" y="855" type="line"/>
			<point x="426" y="729" type="line"/>
			<point x="572" y="729" type="line"/>
			<point x="572" y="855" type="line"/>
		</contour>
		<contour>
			<point x="250" y="701" type="line"/>
			<point x="259" y="676"/>
			<point x="269" y="642"/>
			<point x="272" y="621" type="curve"/>
			<point x="410" y="651" type="line"/>
			<point x="405" y="671"/>
			<point x="394" y="703"/>
			<point x="383" y="726" type="curve"/>
		</contour>
		<contour>
			<point x="615" y="726" type="line"/>
			<point x="610" y="705"/>
			<point x="597" y="676"/>
			<point x="588" y="652" type="curve"/>
			<point x="716" y="626" type="line"/>
			<point x="728" y="644"/>
			<point x="745" y="667"/>
			<point x="767" y="699" type="curve"/>
		</contour>
		<contour>
			<point x="302" y="309" type="line"/>
			<point x="704" y="309" type="line"/>
			<point x="704" y="278" type="line"/>
			<point x="302" y="278" type="line"/>
		</contour>
		<contour>
			<point x="302" y="420" type="line"/>
			<point x="704" y="420" type="line"/>
			<point x="704" y="390" type="line"/>
			<point x="302" y="390" type="line"/>
		</contour>
		<contour>
			<point x="165" y="506" type="line"/>
			<point x="165" y="192" type="line"/>
			<point x="848" y="192" type="line"/>
			<point x="848" y="506" type="line"/>
		</contour>
	</outline>
</glyph>
<glyph name="c13393" format="1">
	<advance width="1000"/>
	<outline>
		<contour>
			<point x="558" y="789" type="line"/>
			<point x="558" y="686" type="line"/>
			<point x="842" y="686" type="line"/>
			<point x="842" y="789" type="line"/>
		</contour>
		<contour>
			<point x="463" y="304" type="line"/>
			<point x="463" y="203" type="line"/>
			<point x="932" y="203" type="line"/>
			<point x="932" y="304" type="line"/>
		</contour>
		<contour>
			<point x="504" y="455" type="line"/>
			<point x="504" y="357" type="line"/>
			<point x="847" y="357" type="line"/>
			<point x="847" y="455" type="line"/>
		</contour>
		<contour>
			<point x="375" y="36" type="line"/>
			<point x="375" y="-76" type="line"/>
			<point x="965" y="-76" type="line"/>
			<point x="965" y="36" type="line"/>
		</contour>
		<contour>
			<point x="453" y="169" type="line"/>
			<point x="453" y="70" type="line"/>
			<point x="908" y="70" type="line"/>
			<point x="908" y="169" type="line"/>
		</contour>
		<contour>
			<point x="802" y="789" type="line"/>
			<point x="802" y="770" type="line"/>
			<point x="734" y="645"/>
			<point x="546" y="551"/>
			<point x="349" y="513" type="curve"/>
			<point x="374" y="486"/>
			<point x="404" y="435"/>
			<point x="418" y="403" type="curve"/>
			<point x="636" y="457"/>
			<point x="839" y="565"/>
			<point x="935" y="748" type="curve"/>
			<point x="848" y="794" type="line"/>
			<point x="827" y="789" type="line"/>
		</contour>
		<contour>
			<point x="573" y="725" type="curve"/>
			<point x="462" y="686" type="line"/>
			<point x="559" y="547"/>
			<point x="714" y="457"/>
			<point x="914" y="418" type="curve"/>
			<point x="931" y="452"/>
			<point x="967" y="504"/>
			<point x="995" y="530" type="curve"/>
			<point x="806" y="557"/>
			<point x="650" y="625"/>
		</contour>
		<contour>
			<point x="574" y="858" type="line"/>
			<point x="536" y="786"/>
			<point x="465" y="711"/>
			<point x="356" y="656" type="curve"/>
			<point x="384" y="637"/>
			<point x="426" y="591"/>
			<point x="445" y="561" type="curve"/>
			<point x="570" y="636"/>
			<point x="650" y="726"/>
			<point x="710" y="833" type="curve"/>
		</contour>
		<contour>
			<point x="444" y="374" type="line"/>
			<point x="425" y="315"/>
			<point x="390" y="254"/>
			<point x="346" y="214" type="curve"/>
			<point x="374" y="199"/>
			<point x="422" y="168"/>
			<point x="445" y="149" type="curve"/>
			<point x="490" y="196"/>
			<point x="535" y="272"/>
			<point x="560" y="346" type="curve"/>
		</contour>
		<contour>
			<point x="607" y="376" type="line"/>
			<point x="607" y="7" type="line"/>
			<point x="742" y="7" type="line"/>
			<point x="742" y="376" type="line"/>
		</contour>
		<contour>
			<point x="66" y="812" type="line"/>
			<point x="66" y="-96" type="line"/>
			<point x="192" y="-96" type="line"/>
			<point x="192" y="683" type="line"/>
			<point x="302" y="683" type="line"/>
			<point x="302" y="812" type="line"/>
		</contour>
		<contour>
			<point x="258" y="812" type="line"/>
			<point x="258" y="769" type="line"/>
			<point x="247" y="707"/>
			<point x="218" y="554"/>
			<point x="194" y="464" type="curve"/>
			<point x="243" y="401"/>
			<point x="253" y="340"/>
			<point x="253" y="298" type="curve"/>
			<point x="253" y="269"/>
			<point x="248" y="252"/>
			<point x="238" y="244" type="curve"/>
			<point x="231" y="239"/>
			<point x="221" y="236"/>
			<point x="212" y="236" type="curve"/>
			<point x="201" y="236"/>
			<point x="191" y="236"/>
			<point x="176" y="238" type="curve"/>
			<point x="196" y="203"/>
			<point x="206" y="149"/>
			<point x="207" y="114" type="curve"/>
			<point x="231" y="113"/>
			<point x="254" y="114"/>
			<point x="271" y="116" type="curve"/>
			<point x="294" y="120"/>
			<point x="314" y="127"/>
			<point x="331" y="140" type="curve"/>
			<point x="365" y="164"/>
			<point x="380" y="207"/>
			<point x="380" y="278" type="curve"/>
			<point x="380" y="335"/>
			<point x="370" y="403"/>
			<point x="314" y="479" type="curve"/>
			<point x="340" y="558"/>
			<point x="372" y="673"/>
			<point x="397" y="763" type="curve"/>
			<point x="302" y="817" type="line"/>
			<point x="282" y="812" type="line"/>
		</contour>
	</outline>
</glyph>
<glyph name="c13498" format="1">
	<advance width="1000"/>
	<outline>
		<contour>
			<point x="44" y="58" type="line"/>
			<point x="51" y="-56" type="line"/>
			<point x="956" y="-16" type="line"/>
			<point x="948" y="94" type="line"/>
		</contour>
		<contour>
			<point x="60" y="812" type="line"/>
			<point x="60" y="697" type="line"/>
			<point x="943" y="697" type="line"/>
			<point x="943" y="812" type="line"/>
		</contour>
		<contour>
			<point x="61" y="429" type="line"/>
			<point x="61" y="326" type="line"/>
			<point x="944" y="326" type="line"/>
			<point x="944" y="429" type="line"/>
		</contour>
		<contour>
			<point x="267" y="299" type="line"/>
			<point x="267" y="216" type="line"/>
			<point x="718" y="216" type="line"/>
			<point x="718" y="299" type="line"/>
		</contour>
		<contour>
			<point x="267" y="188" type="line"/>
			<point x="267" y="105" type="line"/>
			<point x="718" y="105" type="line"/>
			<point x="718" y="188" type="line"/>
		</contour>
		<contour>
			<point x="261" y="855" type="line"/>
			<point x="261" y="643" type="line"/>
			<point x="405" y="643" type="line"/>
			<point x="405" y="855" type="line"/>
		</contour>
		<contour>
			<point x="592" y="855" type="line"/>
			<point x="592" y="643" type="line"/>
			<point x="737" y="643" type="line"/>
			<point x="737" y="855" type="line"/>
		</contour>
		<contour>
			<point x="666" y="397" type="line"/>
			<point x="666" y="-89" type="line"/>
			<point x="810" y="-89" type="line"/>
			<point x="810" y="397" type="line"/>
		</contour>
		<contour>
			<point x="192" y="393" type="line"/>
			<point x="192" y="33" type="line"/>
			<point x="333" y="33" type="line"/>
			<point x="333" y="393" type="line"/>
		</contour>
		<contour>
			<point x="301" y="575" type="line"/>
			<point x="686" y="575" type="line"/>
			<point x="686" y="544" type="line"/>
			<point x="301" y="544" type="line"/>
		</contour>
		<contour>
			<point x="164" y="664" type="line"/>
			<point x="164" y="455" type="line"/>
			<point x="833" y="455" type="line"/>
			<point x="833" y="664" type="line"/>
		</contour>
	</outline>
</glyph>
<glyph name="c13887" format="1">
	<advance width="1000"/>
	<outline>
		<contour>
			<point x="318" y="462" type="line"/>
			<point x="318" y="358" type="line"/>
			<point x="931" y="358" type="line"/>
			<point x="931" y="462" type="line"/>
		</contour>
		<contour>
			<point x="286" y="308" type="line"/>
			<point x="286" y="203" type="line"/>
			<point x="962" y="203" type="line"/>
			<point x="962" y="308" type="line"/>
		</contour>
		<contour>
			<point x="438" y="521" type="line"/>
			<point x="438" y="273" type="line"/>
			<point x="567" y="273" type="line"/>
			<point x="567" y="521" type="line"/>
		</contour>
		<contour>
			<point x="673" y="521" type="line"/>
			<point x="673" y="273" type="line"/>
			<point x="804" y="273" type="line"/>
			<point x="804" y="521" type="line"/>
		</contour>
		<contour>
			<point x="307" y="829" type="line"/>
			<point x="307" y="624" type="line"/>
			<point x="307" y="527"/>
			<point x="334" y="499"/>
			<point x="430" y="499" type="curve"/>
			<point x="450" y="499"/>
			<point x="500" y="499"/>
			<point x="521" y="499" type="curve"/>
			<point x="589" y="499"/>
			<point x="620" y="521"/>
			<point x="632" y="596" type="curve"/>
			<point x="600" y="602"/>
			<point x="555" y="618"/>
			<point x="532" y="634" type="curve"/>
			<point x="529" y="602"/>
			<point x="524" y="595"/>
			<point x="507" y="595" type="curve"/>
			<point x="496" y="595"/>
			<point x="459" y="595"/>
			<point x="450" y="595" type="curve"/>
			<point x="428" y="595"/>
			<point x="425" y="598"/>
			<point x="425" y="625" type="curve"/>
			<point x="425" y="829" type="line"/>
		</contour>
		<contour>
			<point x="636" y="829" type="line"/>
			<point x="636" y="624" type="line"/>
			<point x="636" y="527"/>
			<point x="663" y="499"/>
			<point x="759" y="499" type="curve"/>
			<point x="779" y="499"/>
			<point x="829" y="499"/>
			<point x="850" y="499" type="curve"/>
			<point x="918" y="499"/>
			<point x="949" y="521"/>
			<point x="961" y="596" type="curve"/>
			<point x="929" y="602"/>
			<point x="884" y="618"/>
			<point x="861" y="634" type="curve"/>
			<point x="858" y="602"/>
			<point x="853" y="595"/>
			<point x="836" y="595" type="curve"/>
			<point x="825" y="595"/>
			<point x="788" y="595"/>
			<point x="779" y="595" type="curve"/>
			<point x="757" y="595"/>
			<point x="754" y="598"/>
			<point x="754" y="625" type="curve"/>
			<point x="754" y="829" type="line"/>
		</contour>
		<contour>
			<point x="647" y="153" type="line"/>
			<point x="711" y="121"/>
			<point x="780" y="77"/>
			<point x="816" y="48" type="curve"/>
			<point x="967" y="100" type="line"/>
			<point x="917" y="132"/>
			<point x="826" y="179"/>
			<point x="754" y="212" type="curve"/>
		</contour>
		<contour>
			<point x="476" y="210" type="line"/>
			<point x="435" y="180"/>
			<point x="361" y="152"/>
			<point x="290" y="134" type="curve"/>
			<point x="320" y="114"/>
			<point x="371" y="72"/>
			<point x="395" y="47" type="curve"/>
			<point x="465" y="74"/>
			<point x="551" y="118"/>
			<point x="603" y="166" type="curve"/>
		</contour>
		<contour>
			<point x="260" y="406" type="line"/>
			<point x="32" y="406" type="line"/>
			<point x="32" y="275" type="line"/>
			<point x="125" y="275" type="line"/>
			<point x="125" y="77" type="line"/>
			<point x="260" y="77" type="line"/>
		</contour>
		<contour>
			<point x="260" y="142" type="curve"/>
			<point x="140" y="142" type="line"/>
			<point x="101" y="109"/>
			<point x="57" y="78"/>
			<point x="18" y="52" type="curve"/>
			<point x="83" y="-86" type="line"/>
			<point x="130" y="-43"/>
			<point x="167" y="-7"/>
			<point x="203" y="29" type="curve"/>
			<point x="267" y="-46"/>
			<point x="348" y="-72"/>
			<point x="468" y="-77" type="curve"/>
			<point x="597" y="-83"/>
			<point x="813" y="-81"/>
			<point x="945" y="-74" type="curve"/>
			<point x="951" y="-35"/>
			<point x="972" y="29"/>
			<point x="987" y="60" type="curve"/>
			<point x="840" y="47"/>
			<point x="595" y="44"/>
			<point x="469" y="50" type="curve"/>
			<point x="369" y="54"/>
			<point x="298" y="80"/>
		</contour>
		<contour>
			<point x="70" y="768" type="line"/>
			<point x="120" y="731"/>
			<point x="181" y="676"/>
			<point x="208" y="638" type="curve"/>
			<point x="310" y="729" type="line"/>
			<point x="280" y="767"/>
			<point x="215" y="817"/>
			<point x="166" y="850" type="curve"/>
		</contour>
		<contour>
			<point x="30" y="558" type="line"/>
			<point x="82" y="524"/>
			<point x="147" y="471"/>
			<point x="176" y="435" type="curve"/>
			<point x="275" y="530" type="line"/>
			<point x="243" y="566"/>
			<point x="175" y="613"/>
			<point x="123" y="644" type="curve"/>
		</contour>
		<contour>
			<point x="362" y="829" type="line"/>
			<point x="362" y="746" type="line"/>
			<point x="486" y="746" type="line"/>
			<point x="486" y="714" type="line"/>
			<point x="362" y="714" type="line"/>
			<point x="362" y="631" type="line"/>
			<point x="606" y="631" type="line"/>
			<point x="606" y="829" type="line"/>
		</contour>
		<contour>
			<point x="692" y="829" type="line"/>
			<point x="692" y="746" type="line"/>
			<point x="819" y="746" type="line"/>
			<point x="819" y="714" type="line"/>
			<point x="692" y="714" type="line"/>
			<point x="692" y="631" type="line"/>
			<point x="942" y="631" type="line"/>
			<point x="942" y="829" type="line"/>
		</contour>
	</outline>
</glyph>
<glyph name="c14066" format="1">
	<advance width="1000"/>
	<outline>
		<contour>
			<point x="664" y="788" type="line"/>
			<point x="664" y="-95" type="line"/>
			<point x="786" y="-95" type="line"/>
			<point x="786" y="670" type="line"/>
			<point x="886" y="670" type="line"/>
			<point x="886" y="788" type="line"/>
		</contour>
		<contour>
			<point x="831" y="788" type="line"/>
			<point x="831" y="217" type="line"/>
			<point x="831" y="208"/>
			<point x="829" y="205"/>
			<point x="822" y="205" type="curve"/>
			<point x="815" y="205"/>
			<point x="801" y="205"/>
			<point x="787" y="206" type="curve"/>
			<point x="803" y="172"/>
			<point x="819" y="115"/>
			<point x="822" y="79" type="curve"/>
			<point x="863" y="79"/>
			<point x="894" y="83"/>
			<point x="922" y="104" type="curve"/>
			<point x="951" y="127"/>
			<point x="957" y="164"/>
			<point x="957" y="214" type="curve"/>
			<point x="957" y="788" type="line"/>
		</contour>
		<contour>
			<point x="40" y="691" type="line"/>
			<point x="40" y="561" type="line"/>
			<point x="356" y="561" type="line"/>
			<point x="356" y="691" type="line"/>
		</contour>
		<contour>
			<point x="445" y="703" type="line"/>
			<point x="445" y="579" type="line"/>
			<point x="599" y="579" type="line"/>
			<point x="599" y="703" type="line"/>
		</contour>
		<contour>
			<point x="142" y="855" type="line"/>
			<point x="142" y="-95" type="line"/>
			<point x="275" y="-95" type="line"/>
			<point x="275" y="855" type="line"/>
		</contour>
		<contour>
			<point x="141" y="584" type="line"/>
			<point x="121" y="473"/>
			<point x="71" y="327"/>
			<point x="13" y="239" type="curve"/>
			<point x="33" y="204"/>
			<point x="64" y="149"/>
			<point x="76" y="109" type="curve"/>
			<point x="146" y="214"/>
			<point x="198" y="405"/>
			<point x="225" y="556" type="curve"/>
		</contour>
		<contour>
			<point x="273" y="571" type="curve"/>
			<point x="219" y="507" type="line"/>
			<point x="241" y="461"/>
			<point x="285" y="361"/>
			<point x="304" y="303" type="curve"/>
			<point x="371" y="419" type="line"/>
			<point x="358" y="441"/>
			<point x="291" y="548"/>
		</contour>
		<contour>
			<point x="408" y="845" type="line"/>
			<point x="398" y="694"/>
			<point x="371" y="487"/>
			<point x="302" y="369" type="curve"/>
			<point x="329" y="345"/>
			<point x="369" y="296"/>
			<point x="389" y="266" type="curve"/>
			<point x="481" y="408"/>
			<point x="524" y="638"/>
			<point x="547" y="827" type="curve"/>
		</contour>
		<contour>
			<point x="556" y="703" type="line"/>
			<point x="556" y="672" type="line"/>
			<point x="537" y="367"/>
			<point x="469" y="131"/>
			<point x="337" y="9" type="curve"/>
			<point x="365" y="-12"/>
			<point x="413" y="-67"/>
			<point x="433" y="-100" type="curve"/>
			<point x="576" y="39"/>
			<point x="661" y="321"/>
			<point x="687" y="687" type="curve"/>
			<point x="604" y="707" type="line"/>
			<point x="580" y="703" type="line"/>
		</contour>
		<contour>
			<point x="409" y="367" type="line"/>
			<point x="442" y="325"/>
			<point x="483" y="268"/>
			<point x="499" y="229" type="curve"/>
			<point x="559" y="367" type="line"/>
			<point x="543" y="400"/>
			<point x="500" y="451"/>
			<point x="466" y="489" type="curve"/>
		</contour>
	</outline>
</glyph>
<glyph name="c14872" format="1">
	<advance width="1000"/>
	<outline>
		<contour>
			<point x="77" y="429" type="line"/>
			<point x="77" y="330" type="line"/>
			<point x="501" y="330" type="line"/>
			<point x="501" y="429" type="line"/>
		</contour>
		<contour>
			<point x="536" y="646" type="line"/>
			<point x="536" y="556" type="line"/>
			<point x="933" y="556" type="line"/>
			<point x="933" y="646" type="line"/>
		</contour>
		<contour>
			<point x="587" y="855" type="line"/>
			<point x="561" y="789"/>
			<point x="515" y="722"/>
			<point x="461" y="679" type="curve"/>
			<point x="490" y="664"/>
			<point x="539" y="632"/>
			<point x="562" y="613" type="curve"/>
			<point x="615" y="663"/>
			<point x="670" y="745"/>
			<point x="703" y="825" type="curve"/>
		</contour>
		<contour>
			<point x="77" y="816" type="line"/>
			<point x="77" y="372" type="line"/>
			<point x="204" y="372" type="line"/>
			<point x="204" y="717" type="line"/>
			<point x="500" y="717" type="line"/>
			<point x="500" y="816" type="line"/>
		</contour>
		<contour>
			<point x="131" y="679" type="line"/>
			<point x="131" y="594" type="line"/>
			<point x="372" y="594" type="line"/>
			<point x="372" y="552" type="line"/>
			<point x="131" y="552" type="line"/>
			<point x="131" y="467" type="line"/>
			<point x="490" y="467" type="line"/>
			<point x="490" y="679" type="line"/>
		</contour>
		<contour>
			<point x="269" y="775" type="line"/>
			<point x="269" y="631" type="line"/>
			<point x="384" y="631" type="line"/>
			<point x="384" y="775" type="line"/>
		</contour>
		<contour>
			<point x="678" y="695" type="line"/>
			<point x="678" y="501" type="line"/>
			<point x="793" y="501" type="line"/>
			<point x="793" y="695" type="line"/>
		</contour>
		<contour>
			<point x="269" y="518" type="line"/>
			<point x="269" y="369" type="line"/>
			<point x="384" y="369" type="line"/>
			<point x="384" y="518" type="line"/>
		</contour>
		<contour>
			<point x="592" y="787" type="line"/>
			<point x="541" y="679" type="line"/>
			<point x="948" y="679" type="line"/>
			<point x="948" y="787" type="line"/>
		</contour>
		<contour>
			<point x="651" y="444" type="line"/>
			<point x="817" y="444" type="line"/>
			<point x="817" y="410" type="line"/>
			<point x="651" y="410" type="line"/>
		</contour>
		<contour>
			<point x="549" y="526" type="line"/>
			<point x="549" y="328" type="line"/>
			<point x="925" y="328" type="line"/>
			<point x="925" y="526" type="line"/>
		</contour>
		<contour>
			<point x="40" y="65" type="line"/>
			<point x="40" y="-59" type="line"/>
			<point x="959" y="-59" type="line"/>
			<point x="959" y="65" type="line"/>
		</contour>
		<contour>
			<point x="136" y="290" type="line"/>
			<point x="136" y="-1" type="line"/>
			<point x="271" y="-1" type="line"/>
			<point x="271" y="179" type="line"/>
			<point x="330" y="179" type="line"/>
			<point x="330" y="-1" type="line"/>
			<point x="462" y="-1" type="line"/>
			<point x="462" y="179" type="line"/>
			<point x="522" y="179" type="line"/>
			<point x="522" y="-1" type="line"/>
			<point x="654" y="-1" type="line"/>
			<point x="654" y="179" type="line"/>
			<point x="714" y="179" type="line"/>
			<point x="714" y="-1" type="line"/>
			<point x="857" y="-1" type="line"/>
			<point x="857" y="290" type="line"/>
		</contour>
	</outline>
</glyph>
<glyph name="c15147" format="1">
	<advance width="1000"/>
	<outline>
		<contour>
			<point x="398" y="825" type="line"/>
			<point x="398" y="588" type="line"/>
			<point x="398" y="488"/>
			<point x="422" y="458"/>
			<point x="510" y="458" type="curve"/>
			<point x="528" y="458"/>
			<point x="566" y="458"/>
			<point x="585" y="458" type="curve"/>
			<point x="649" y="458"/>
			<point x="679" y="483"/>
			<point x="691" y="572" type="curve"/>
			<point x="660" y="578"/>
			<point x="615" y="596"/>
			<point x="594" y="612" type="curve"/>
			<point x="591" y="567"/>
			<point x="587" y="559"/>
			<point x="572" y="559" type="curve"/>
			<point x="563" y="559"/>
			<point x="537" y="559"/>
			<point x="529" y="559" type="curve"/>
			<point x="512" y="559"/>
			<point x="509" y="562"/>
			<point x="509" y="589" type="curve"/>
			<point x="509" y="825" type="line"/>
		</contour>
		<contour>
			<point x="401" y="405" type="line"/>
			<point x="401" y="287" type="line"/>
			<point x="964" y="287" type="line"/>
			<point x="964" y="405" type="line"/>
		</contour>
		<contour>
			<point x="378" y="215" type="line"/>
			<point x="378" y="95" type="line"/>
			<point x="977" y="95" type="line"/>
			<point x="977" y="215" type="line"/>
		</contour>
		<contour>
			<point x="501" y="486" type="line"/>
			<point x="501" y="180" type="line"/>
			<point x="631" y="180" type="line"/>
			<point x="631" y="486" type="line"/>
		</contour>
		<contour>
			<point x="719" y="483" type="line"/>
			<point x="719" y="177" type="line"/>
			<point x="850" y="177" type="line"/>
			<point x="850" y="483" type="line"/>
		</contour>
		<contour>
			<point x="449" y="825" type="line"/>
			<point x="449" y="737" type="line"/>
			<point x="555" y="737" type="line"/>
			<point x="555" y="701" type="line"/>
			<point x="449" y="701" type="line"/>
			<point x="449" y="613" type="line"/>
			<point x="659" y="613" type="line"/>
			<point x="659" y="825" type="line"/>
		</contour>
		<contour>
			<point x="683" y="825" type="line"/>
			<point x="683" y="588" type="line"/>
			<point x="683" y="488"/>
			<point x="707" y="458"/>
			<point x="796" y="458" type="curve"/>
			<point x="814" y="458"/>
			<point x="854" y="458"/>
			<point x="872" y="458" type="curve"/>
			<point x="938" y="458"/>
			<point x="968" y="483"/>
			<point x="980" y="572" type="curve"/>
			<point x="949" y="579"/>
			<point x="904" y="596"/>
			<point x="882" y="612" type="curve"/>
			<point x="880" y="567"/>
			<point x="875" y="559"/>
			<point x="860" y="559" type="curve"/>
			<point x="851" y="559"/>
			<point x="823" y="559"/>
			<point x="815" y="559" type="curve"/>
			<point x="797" y="559"/>
			<point x="794" y="562"/>
			<point x="794" y="589" type="curve"/>
			<point x="794" y="825" type="line"/>
		</contour>
		<contour>
			<point x="734" y="825" type="line"/>
			<point x="734" y="737" type="line"/>
			<point x="840" y="737" type="line"/>
			<point x="840" y="701" type="line"/>
			<point x="734" y="701" type="line"/>
			<point x="734" y="613" type="line"/>
			<point x="944" y="613" type="line"/>
			<point x="944" y="825" type="line"/>
		</contour>
		<contour>
			<point x="516" y="100" type="line"/>
			<point x="482" y="57"/>
			<point x="418" y="16"/>
			<point x="352" y="-9" type="curve"/>
			<point x="384" y="-30"/>
			<point x="437" y="-73"/>
			<point x="463" y="-98" type="curve"/>
			<point x="530" y="-63"/>
			<point x="606" y="-4"/>
			<point x="651" y="59" type="curve"/>
		</contour>
		<contour>
			<point x="697" y="54" type="line"/>
			<point x="759" y="11"/>
			<point x="836" y="-52"/>
			<point x="871" y="-94" type="curve"/>
			<point x="991" y="-27" type="line"/>
			<point x="950" y="17"/>
			<point x="869" y="76"/>
			<point x="809" y="115" type="curve"/>
		</contour>
		<contour>
			<point x="71" y="546" type="line"/>
			<point x="71" y="438" type="line"/>
			<point x="355" y="438" type="line"/>
			<point x="355" y="546" type="line"/>
		</contour>
		<contour>
			<point x="77" y="826" type="line"/>
			<point x="77" y="718" type="line"/>
			<point x="352" y="718" type="line"/>
			<point x="352" y="826" type="line"/>
		</contour>
		<contour>
			<point x="71" y="408" type="line"/>
			<point x="71" y="300" type="line"/>
			<point x="355" y="300" type="line"/>
			<point x="355" y="408" type="line"/>
		</contour>
		<contour>
			<point x="25" y="689" type="line"/>
			<point x="25" y="576" type="line"/>
			<point x="381" y="576" type="line"/>
			<point x="381" y="689" type="line"/>
		</contour>
		<contour>
			<point x="137" y="267" type="line"/>
			<point x="137" y="155" type="line"/>
			<point x="240" y="155" type="line"/>
			<point x="240" y="70" type="line"/>
			<point x="137" y="70" type="line"/>
			<point x="137" y="-42" type="line"/>
			<point x="358" y="-42" type="line"/>
			<point x="358" y="267" type="line"/>
		</contour>
		<contour>
			<point x="67" y="267" type="line"/>
			<point x="67" y="-80" type="line"/>
			<point x="184" y="-80" type="line"/>
			<point x="184" y="267" type="line"/>
		</contour>
	</outline>
</glyph>
<glyph name="c15202" format="1">
	<advance width="1000"/>
	<outline>
		<contour>
			<point x="136" y="784" type="line"/>
			<point x="136" y="672" type="line"/>
			<point x="614" y="672" type="line"/>
			<point x="614" y="784" type="line"/>
		</contour>
		<contour>
			<point x="262" y="250" type="line"/>
			<point x="262" y="143" type="line"/>
			<point x="384" y="143" type="line"/>
			<point x="384" y="250" type="line"/>
		</contour>
		<contour>
			<point x="312" y="846" type="line"/>
			<point x="312" y="693" type="line"/>
			<point x="438" y="693" type="line"/>
			<point x="438" y="846" type="line"/>
		</contour>
		<contour>
			<point x="238" y="673" type="line"/>
			<point x="238" y="380" type="line"/>
			<point x="336" y="380" type="line"/>
			<point x="336" y="673" type="line"/>
		</contour>
		<contour>
			<point x="375" y="673" type="line"/>
			<point x="375" y="380" type="line"/>
			<point x="474" y="380" type="line"/>
			<point x="474" y="673" type="line"/>
		</contour>
		<contour>
			<point x="84" y="784" type="line"/>
			<point x="84" y="466" type="line"/>
			<point x="84" y="320"/>
			<point x="79" y="115"/>
			<point x="11" y="-26" type="curve"/>
			<point x="39" y="-37"/>
			<point x="89" y="-68"/>
			<point x="111" y="-86" type="curve"/>
			<point x="185" y="66"/>
			<point x="197" y="305"/>
			<point x="197" y="466" type="curve"/>
			<point x="197" y="784" type="line"/>
		</contour>
		<contour>
			<point x="165" y="612" type="line"/>
			<point x="165" y="499" type="line"/>
			<point x="511" y="499" type="line"/>
			<point x="511" y="432" type="line"/>
			<point x="165" y="432" type="line"/>
			<point x="165" y="319" type="line"/>
			<point x="611" y="319" type="line"/>
			<point x="611" y="612" type="line"/>
		</contour>
		<contour>
			<point x="205" y="337" type="line"/>
			<point x="205" y="3" type="line"/>
			<point x="310" y="10" type="line"/>
			<point x="310" y="337" type="line"/>
		</contour>
		<contour>
			<point x="151" y="26" type="curve"/>
			<point x="174" y="-86" type="line"/>
			<point x="241" y="-71"/>
			<point x="319" y="-54"/>
			<point x="394" y="-36" type="curve"/>
			<point x="382" y="68" type="line"/>
			<point x="296" y="52"/>
			<point x="212" y="35"/>
		</contour>
		<contour>
			<point x="401" y="337" type="line"/>
			<point x="401" y="51" type="line"/>
			<point x="401" y="-48"/>
			<point x="418" y="-79"/>
			<point x="497" y="-79" type="curve"/>
			<point x="512" y="-79"/>
			<point x="527" y="-79"/>
			<point x="542" y="-79" type="curve"/>
			<point x="601" y="-79"/>
			<point x="629" y="-49"/>
			<point x="639" y="59" type="curve"/>
			<point x="609" y="66"/>
			<point x="565" y="84"/>
			<point x="545" y="101" type="curve"/>
			<point x="543" y="32"/>
			<point x="540" y="22"/>
			<point x="529" y="22" type="curve"/>
			<point x="527" y="22"/>
			<point x="520" y="22"/>
			<point x="518" y="22" type="curve"/>
			<point x="510" y="22"/>
			<point x="509" y="25"/>
			<point x="509" y="52" type="curve"/>
			<point x="509" y="337" type="line"/>
		</contour>
		<contour>
			<point x="560" y="289" type="line"/>
			<point x="522" y="257"/>
			<point x="457" y="211"/>
			<point x="414" y="188" type="curve"/>
			<point x="469" y="113" type="line"/>
			<point x="516" y="134"/>
			<point x="578" y="168"/>
			<point x="632" y="202" type="curve"/>
		</contour>
		<contour>
			<point x="641" y="806" type="line"/>
			<point x="641" y="-94" type="line"/>
			<point x="769" y="-94" type="line"/>
			<point x="769" y="681" type="line"/>
			<point x="879" y="681" type="line"/>
			<point x="879" y="806" type="line"/>
		</contour>
		<contour>
			<point x="842" y="806" type="line"/>
			<point x="842" y="760" type="line"/>
			<point x="830" y="695"/>
			<point x="798" y="534"/>
			<point x="772" y="440" type="curve"/>
			<point x="824" y="365"/>
			<point x="835" y="294"/>
			<point x="835" y="243" type="curve"/>
			<point x="835" y="209"/>
			<point x="830" y="188"/>
			<point x="818" y="179" type="curve"/>
			<point x="811" y="172"/>
			<point x="801" y="170"/>
			<point x="791" y="170" type="curve"/>
			<point x="781" y="170"/>
			<point x="770" y="170"/>
			<point x="756" y="171" type="curve"/>
			<point x="775" y="135"/>
			<point x="785" y="79"/>
			<point x="786" y="44" type="curve"/>
			<point x="809" y="43"/>
			<point x="832" y="44"/>
			<point x="849" y="46" type="curve"/>
			<point x="873" y="50"/>
			<point x="894" y="58"/>
			<point x="911" y="72" type="curve"/>
			<point x="945" y="98"/>
			<point x="961" y="147"/>
			<point x="961" y="224" type="curve"/>
			<point x="961" y="288"/>
			<point x="951" y="367"/>
			<point x="893" y="454" type="curve"/>
			<point x="921" y="538"/>
			<point x="954" y="656"/>
			<point x="981" y="754" type="curve"/>
			<point x="886" y="811" type="line"/>
			<point x="866" y="806" type="line"/>
		</contour>
	</outline>
</glyph>
<glyph name="c15324" format="1">
	<advance width="1000"/>
	<outline>
		<contour>
			<point x="237" y="273" type="line"/>
			<point x="237" y="191" type="line"/>
			<point x="760" y="191" type="line"/>
			<point x="760" y="273" type="line"/>
		</contour>
		<contour>
			<point x="64" y="169" type="line"/>
			<point x="64" y="81" type="line"/>
			<point x="938" y="81" type="line"/>
			<point x="938" y="169" type="line"/>
		</contour>
		<contour>
			<point x="428" y="417" type="line"/>
			<point x="428" y="313" type="line"/>
			<point x="572" y="313" type="line"/>
			<point x="572" y="417" type="line"/>
		</contour>
		<contour>
			<point x="606" y="42" type="line"/>
			<point x="673" y="7"/>
			<point x="759" y="-48"/>
			<point x="799" y="-85" type="curve"/>
			<point x="927" y="-18" type="line"/>
			<point x="879" y="21"/>
			<point x="790" y="72"/>
			<point x="726" y="103" type="curve"/>
		</contour>
		<contour>
			<point x="72" y="379" type="line"/>
			<point x="72" y="220" type="line"/>
			<point x="212" y="220" type="line"/>
			<point x="212" y="295" type="line"/>
			<point x="784" y="295" type="line"/>
			<point x="784" y="220" type="line"/>
			<point x="931" y="220" type="line"/>
			<point x="931" y="379" type="line"/>
		</contour>
		<contour>
			<point x="423" y="115" type="line"/>
			<point x="423" y="23" type="line"/>
			<point x="423" y="12"/>
			<point x="417" y="9"/>
			<point x="403" y="9" type="curve"/>
			<point x="391" y="8"/>
			<point x="337" y="8"/>
			<point x="302" y="10" type="curve"/>
			<point x="320" y="-17"/>
			<point x="345" y="-61"/>
			<point x="357" y="-95" type="curve"/>
			<point x="417" y="-95"/>
			<point x="466" y="-94"/>
			<point x="510" y="-78" type="curve"/>
			<point x="553" y="-62"/>
			<point x="567" y="-39"/>
			<point x="567" y="18" type="curve"/>
			<point x="567" y="115" type="line"/>
		</contour>
		<contour>
			<point x="244" y="105" type="line"/>
			<point x="202" y="64"/>
			<point x="124" y="27"/>
			<point x="46" y="4" type="curve"/>
			<point x="75" y="-17"/>
			<point x="124" y="-64"/>
			<point x="147" y="-90" type="curve"/>
			<point x="226" y="-57"/>
			<point x="318" y="0"/>
			<point x="372" y="62" type="curve"/>
		</contour>
		<contour>
			<point x="205" y="737" type="line"/>
			<point x="205" y="677" type="line"/>
			<point x="489" y="677" type="line"/>
			<point x="489" y="737" type="line"/>
		</contour>
		<contour>
			<point x="205" y="658" type="line"/>
			<point x="205" y="598" type="line"/>
			<point x="489" y="598" type="line"/>
			<point x="489" y="658" type="line"/>
		</contour>
		<contour>
			<point x="46" y="579" type="line"/>
			<point x="46" y="502" type="line"/>
			<point x="560" y="502" type="line"/>
			<point x="560" y="579" type="line"/>
		</contour>
		<contour>
			<point x="120" y="833" type="line"/>
			<point x="120" y="537" type="line"/>
			<point x="251" y="537" type="line"/>
			<point x="251" y="756" type="line"/>
			<point x="522" y="756" type="line"/>
			<point x="522" y="833" type="line"/>
		</contour>
		<contour>
			<point x="165" y="552" type="line"/>
			<point x="157" y="524"/>
			<point x="140" y="483"/>
			<point x="126" y="454" type="curve"/>
			<point x="217" y="428" type="line"/>
			<point x="235" y="453"/>
			<point x="258" y="487"/>
			<point x="283" y="525" type="curve"/>
		</contour>
		<contour>
			<point x="73" y="471" type="curve"/>
			<point x="81" y="388" type="line"/>
			<point x="184" y="394"/>
			<point x="319" y="403"/>
			<point x="452" y="414" type="curve"/>
			<point x="453" y="486" type="line"/>
			<point x="312" y="479"/>
			<point x="170" y="474"/>
		</contour>
		<contour>
			<point x="356" y="496" type="line"/>
			<point x="387" y="467"/>
			<point x="424" y="424"/>
			<point x="440" y="397" type="curve"/>
			<point x="532" y="443" type="line"/>
			<point x="514" y="471"/>
			<point x="475" y="511"/>
			<point x="443" y="538" type="curve"/>
		</contour>
		<contour>
			<point x="810" y="855" type="line"/>
			<point x="748" y="816"/>
			<point x="622" y="776"/>
			<point x="534" y="756" type="curve"/>
			<point x="564" y="733"/>
			<point x="596" y="697"/>
			<point x="614" y="672" type="curve"/>
			<point x="711" y="698"/>
			<point x="833" y="743"/>
			<point x="918" y="799" type="curve"/>
		</contour>
		<contour>
			<point x="834" y="719" type="line"/>
			<point x="774" y="676"/>
			<point x="652" y="641"/>
			<point x="550" y="625" type="curve"/>
			<point x="577" y="602"/>
			<point x="606" y="564"/>
			<point x="623" y="537" type="curve"/>
			<point x="740" y="563"/>
			<point x="863" y="606"/>
			<point x="943" y="671" type="curve"/>
		</contour>
		<contour>
			<point x="855" y="592" type="line"/>
			<point x="795" y="537"/>
			<point x="672" y="502"/>
			<point x="549" y="487" type="curve"/>
			<point x="575" y="461"/>
			<point x="605" y="419"/>
			<point x="620" y="387" type="curve"/>
			<point x="766" y="417"/>
			<point x="894" y="464"/>
			<point x="973" y="549" type="curve"/>
		</contour>
	</outline>
</glyph>
<glyph name="c16877" format="1">
	<advance width="1000"/>
	<outline>
		<contour>
			<point x="292" y="519" type="line"/>
			<point x="704" y="519" type="line"/>
			<point x="704" y="496" type="line"/>
			<point x="292" y="496" type="line"/>
		</contour>
		<contour>
			<point x="292" y="614" type="line"/>
			<point x="704" y="614" type="line"/>
			<point x="704" y="591" type="line"/>
			<point x="292" y="591" type="line"/>
		</contour>
		<contour>
			<point x="160" y="690" type="line"/>
			<point x="160" y="420" type="line"/>
			<point x="843" y="420" type="line"/>
			<point x="843" y="690" type="line"/>
		</contour>
		<contour>
			<point x="46" y="398" type="line"/>
			<point x="46" y="302" type="line"/>
			<point x="951" y="302" type="line"/>
			<point x="951" y="398" type="line"/>
		</contour>
		<contour>
			<point x="328" y="447" type="line"/>
			<point x="287" y="357"/>
			<point x="196" y="280"/>
			<point x="24" y="233" type="curve"/>
			<point x="48" y="212"/>
			<point x="83" y="163"/>
			<point x="96" y="133" type="curve"/>
			<point x="289" y="199"/>
			<point x="395" y="293"/>
			<point x="458" y="426" type="curve"/>
		</contour>
		<contour>
			<point x="726" y="356" type="curve"/>
			<point x="623" y="323" type="line"/>
			<point x="682" y="231"/>
			<point x="779" y="159"/>
			<point x="898" y="126" type="curve"/>
			<point x="916" y="158"/>
			<point x="952" y="207"/>
			<point x="980" y="232" type="curve"/>
			<point x="871" y="252"/>
			<point x="775" y="297"/>
		</contour>
		<contour>
			<point x="51" y="815" type="line"/>
			<point x="51" y="717" type="line"/>
			<point x="952" y="717" type="line"/>
			<point x="952" y="815" type="line"/>
		</contour>
		<contour>
			<point x="267" y="855" type="line"/>
			<point x="267" y="675" type="line"/>
			<point x="408" y="675" type="line"/>
			<point x="408" y="855" type="line"/>
		</contour>
		<contour>
			<point x="589" y="855" type="line"/>
			<point x="589" y="675" type="line"/>
			<point x="731" y="675" type="line"/>
			<point x="731" y="855" type="line"/>
		</contour>
		<contour>
			<point x="243" y="198" type="line"/>
			<point x="243" y="124" type="line"/>
			<point x="766" y="124" type="line"/>
			<point x="766" y="198" type="line"/>
		</contour>
		<contour>
			<point x="122" y="103" type="line"/>
			<point x="122" y="23" type="line"/>
			<point x="879" y="23" type="line"/>
			<point x="879" y="103" type="line"/>
		</contour>
		<contour>
			<point x="439" y="247" type="line"/>
			<point x="439" y="13" type="line"/>
			<point x="439" y="1"/>
			<point x="434" y="-2"/>
			<point x="421" y="-2" type="curve"/>
			<point x="410" y="-3"/>
			<point x="362" y="-3"/>
			<point x="329" y="-1" type="curve"/>
			<point x="343" y="-27"/>
			<point x="359" y="-66"/>
			<point x="365" y="-96" type="curve"/>
			<point x="431" y="-96"/>
			<point x="482" y="-96"/>
			<point x="521" y="-82" type="curve"/>
			<point x="560" y="-68"/>
			<point x="572" y="-46"/>
			<point x="572" y="8" type="curve"/>
			<point x="572" y="247" type="line"/>
		</contour>
		<contour>
			<point x="592" y="312" type="line"/>
			<point x="527" y="295"/>
			<point x="412" y="284"/>
			<point x="312" y="278" type="curve"/>
			<point x="322" y="260"/>
			<point x="334" y="229"/>
			<point x="337" y="210" type="curve"/>
			<point x="446" y="213"/>
			<point x="575" y="225"/>
			<point x="669" y="249" type="curve"/>
		</contour>
	</outline>
</glyph>
<glyph name="c16976" format="1">
	<advance width="1000"/>
	<outline>
		<contour>
			<point x="30" y="801" type="line"/>
			<point x="30" y="667" type="line"/>
			<point x="373" y="667" type="line"/>
			<point x="373" y="801" type="line"/>
		</contour>
		<contour>
			<point x="44" y="533" type="line"/>
			<point x="44" y="400" type="line"/>
			<point x="360" y="400" type="line"/>
			<point x="360" y="533" type="line"/>
		</contour>
		<contour>
			<point x="11" y="206" type="curve"/>
			<point x="43" y="69" type="line"/>
			<point x="141" y="92"/>
			<point x="265" y="121"/>
			<point x="378" y="150" type="curve"/>
			<point x="362" y="281" type="line"/>
			<point x="236" y="252"/>
			<point x="102" y="222"/>
		</contour>
		<contour>
			<point x="132" y="748" type="line"/>
			<point x="132" y="169" type="line"/>
			<point x="271" y="223" type="line"/>
			<point x="271" y="748" type="line"/>
		</contour>
		<contour>
			<point x="336" y="36" type="line"/>
			<point x="336" y="-83" type="line"/>
			<point x="971" y="-83" type="line"/>
			<point x="971" y="36" type="line"/>
		</contour>
		<contour>
			<point x="428" y="203" type="line"/>
			<point x="428" y="92" type="line"/>
			<point x="919" y="92" type="line"/>
			<point x="919" y="203" type="line"/>
		</contour>
		<contour>
			<point x="545" y="579" type="line"/>
			<point x="794" y="579" type="line"/>
			<point x="794" y="543" type="line"/>
			<point x="545" y="543" type="line"/>
		</contour>
		<contour>
			<point x="545" y="713" type="line"/>
			<point x="794" y="713" type="line"/>
			<point x="794" y="678" type="line"/>
			<point x="545" y="678" type="line"/>
		</contour>
		<contour>
			<point x="414" y="820" type="line"/>
			<point x="414" y="436" type="line"/>
			<point x="931" y="436" type="line"/>
			<point x="931" y="820" type="line"/>
		</contour>
		<contour>
			<point x="602" y="453" type="line"/>
			<point x="602" y="16" type="line"/>
			<point x="744" y="16" type="line"/>
			<point x="744" y="453" type="line"/>
		</contour>
		<contour>
			<point x="437" y="444" type="line"/>
			<point x="414" y="373"/>
			<point x="370" y="301"/>
			<point x="318" y="255" type="curve"/>
			<point x="346" y="238"/>
			<point x="395" y="201"/>
			<point x="417" y="181" type="curve"/>
			<point x="472" y="236"/>
			<point x="526" y="326"/>
			<point x="557" y="414" type="curve"/>
		</contour>
		<contour>
			<point x="475" y="367" type="line"/>
			<point x="419" y="255" type="line"/>
			<point x="939" y="255" type="line"/>
			<point x="939" y="367" type="line"/>
		</contour>
	</outline>
</glyph>
<glyph name="c17290" format="1">
	<advance width="1000"/>
	<outline>
		<contour>
			<point x="328" y="822" type="line"/>
			<point x="328" y="582" type="line"/>
			<point x="328" y="482"/>
			<point x="354" y="453"/>
			<point x="446" y="453" type="curve"/>
			<point x="465" y="453"/>
			<point x="509" y="453"/>
			<point x="529" y="453" type="curve"/>
			<point x="597" y="453"/>
			<point x="627" y="478"/>
			<point x="639" y="563" type="curve"/>
			<point x="608" y="570"/>
			<point x="562" y="586"/>
			<point x="540" y="603" type="curve"/>
			<point x="537" y="560"/>
			<point x="533" y="552"/>
			<point x="516" y="552" type="curve"/>
			<point x="506" y="552"/>
			<point x="474" y="552"/>
			<point x="466" y="552" type="curve"/>
			<point x="446" y="552"/>
			<point x="443" y="555"/>
			<point x="443" y="583" type="curve"/>
			<point x="443" y="822" type="line"/>
		</contour>
		<contour>
			<point x="328" y="399" type="line"/>
			<point x="328" y="279" type="line"/>
			<point x="950" y="279" type="line"/>
			<point x="950" y="399" type="line"/>
		</contour>
		<contour>
			<point x="301" y="214" type="line"/>
			<point x="301" y="92" type="line"/>
			<point x="972" y="92" type="line"/>
			<point x="972" y="214" type="line"/>
		</contour>
		<contour>
			<point x="443" y="477" type="line"/>
			<point x="443" y="171" type="line"/>
			<point x="576" y="171" type="line"/>
			<point x="576" y="477" type="line"/>
		</contour>
		<contour>
			<point x="692" y="476" type="line"/>
			<point x="692" y="170" type="line"/>
			<point x="826" y="170" type="line"/>
			<point x="826" y="476" type="line"/>
		</contour>
		<contour>
			<point x="379" y="822" type="line"/>
			<point x="379" y="731" type="line"/>
			<point x="509" y="731" type="line"/>
			<point x="509" y="699" type="line"/>
			<point x="379" y="699" type="line"/>
			<point x="379" y="607" type="line"/>
			<point x="616" y="607" type="line"/>
			<point x="616" y="822" type="line"/>
		</contour>
		<contour>
			<point x="647" y="822" type="line"/>
			<point x="647" y="582" type="line"/>
			<point x="647" y="482"/>
			<point x="673" y="453"/>
			<point x="766" y="453" type="curve"/>
			<point x="786" y="453"/>
			<point x="833" y="453"/>
			<point x="854" y="453" type="curve"/>
			<point x="923" y="453"/>
			<point x="953" y="479"/>
			<point x="965" y="567" type="curve"/>
			<point x="934" y="574"/>
			<point x="888" y="590"/>
			<point x="866" y="607" type="curve"/>
			<point x="863" y="561"/>
			<point x="858" y="552"/>
			<point x="841" y="552" type="curve"/>
			<point x="830" y="552"/>
			<point x="795" y="552"/>
			<point x="786" y="552" type="curve"/>
			<point x="765" y="552"/>
			<point x="762" y="555"/>
			<point x="762" y="584" type="curve"/>
			<point x="762" y="822" type="line"/>
		</contour>
		<contour>
			<point x="698" y="822" type="line"/>
			<point x="698" y="731" type="line"/>
			<point x="831" y="731" type="line"/>
			<point x="831" y="699" type="line"/>
			<point x="698" y="699" type="line"/>
			<point x="698" y="607" type="line"/>
			<point x="940" y="607" type="line"/>
			<point x="940" y="822" type="line"/>
		</contour>
		<contour>
			<point x="484" y="87" type="line"/>
			<point x="443" y="48"/>
			<point x="361" y="17"/>
			<point x="277" y="-1" type="curve"/>
			<point x="307" y="-24"/>
			<point x="357" y="-73"/>
			<point x="380" y="-100" type="curve"/>
			<point x="467" y="-70"/>
			<point x="563" y="-18"/>
			<point x="618" y="45" type="curve"/>
		</contour>
		<contour>
			<point x="664" y="30" type="line"/>
			<point x="730" y="-3"/>
			<point x="813" y="-55"/>
			<point x="852" y="-90" type="curve"/>
			<point x="974" y="-19" type="line"/>
			<point x="927" y="18"/>
			<point x="841" y="67"/>
			<point x="777" y="95" type="curve"/>
		</contour>
		<contour>
			<point x="197" y="855" type="line"/>
			<point x="156" y="713"/>
			<point x="85" y="571"/>
			<point x="8" y="480" type="curve"/>
			<point x="30" y="441"/>
			<point x="65" y="356"/>
			<point x="76" y="320" type="curve"/>
			<point x="180" y="442"/>
			<point x="274" y="639"/>
			<point x="331" y="815" type="curve"/>
		</contour>
		<contour>
			<point x="118" y="564" type="line"/>
			<point x="118" y="-94" type="line"/>
			<point x="256" y="-94" type="line"/>
			<point x="256" y="696" type="line"/>
			<point x="252" y="698" type="line"/>
		</contour>
	</outline>
</glyph>
<glyph name="c17700" format="1">
	<advance width="1000"/>
	<outline>
		<contour>
			<point x="409" y="775" type="line"/>
			<point x="409" y="653" type="line"/>
			<point x="959" y="653" type="line"/>
			<point x="959" y="775" type="line"/>
		</contour>
		<contour>
			<point x="552" y="246" type="line"/>
			<point x="552" y="135" type="line"/>
			<point x="697" y="135" type="line"/>
			<point x="697" y="246" type="line"/>
		</contour>
		<contour>
			<point x="483" y="328" type="line"/>
			<point x="483" y="4" type="line"/>
			<point x="603" y="4" type="line"/>
			<point x="603" y="328" type="line"/>
		</contour>
		<contour>
			<point x="587" y="855" type="line"/>
			<point x="587" y="702" type="line"/>
			<point x="735" y="702" type="line"/>
			<point x="735" y="855" type="line"/>
		</contour>
		<contour>
			<point x="521" y="653" type="line"/>
			<point x="521" y="383" type="line"/>
			<point x="633" y="383" type="line"/>
			<point x="633" y="653" type="line"/>
		</contour>
		<contour>
			<point x="675" y="653" type="line"/>
			<point x="675" y="383" type="line"/>
			<point x="787" y="383" type="line"/>
			<point x="787" y="653" type="line"/>
		</contour>
		<contour>
			<point x="905" y="284" type="line"/>
			<point x="863" y="252"/>
			<point x="793" y="208"/>
			<point x="746" y="187" type="curve"/>
			<point x="803" y="104" type="line"/>
			<point x="852" y="124"/>
			<point x="921" y="159"/>
			<point x="974" y="193" type="curve"/>
		</contour>
		<contour>
			<point x="417" y="593" type="line"/>
			<point x="417" y="486" type="line"/>
			<point x="832" y="486" type="line"/>
			<point x="832" y="419" type="line"/>
			<point x="417" y="419" type="line"/>
			<point x="417" y="312" type="line"/>
			<point x="955" y="312" type="line"/>
			<point x="955" y="593" type="line"/>
		</contour>
		<contour>
			<point x="714" y="328" type="line"/>
			<point x="714" y="58" type="line"/>
			<point x="714" y="-50"/>
			<point x="733" y="-86"/>
			<point x="823" y="-86" type="curve"/>
			<point x="840" y="-86"/>
			<point x="860" y="-86"/>
			<point x="877" y="-86" type="curve"/>
			<point x="943" y="-86"/>
			<point x="974" y="-54"/>
			<point x="987" y="58" type="curve"/>
			<point x="953" y="66"/>
			<point x="903" y="86"/>
			<point x="880" y="105" type="curve"/>
			<point x="878" y="37"/>
			<point x="875" y="27"/>
			<point x="863" y="27" type="curve"/>
			<point x="859" y="27"/>
			<point x="850" y="27"/>
			<point x="846" y="27" type="curve"/>
			<point x="836" y="27"/>
			<point x="835" y="30"/>
			<point x="835" y="59" type="curve"/>
			<point x="835" y="328" type="line"/>
		</contour>
		<contour>
			<point x="430" y="22" type="curve"/>
			<point x="452" y="-94" type="line"/>
			<point x="527" y="-81"/>
			<point x="616" y="-65"/>
			<point x="701" y="-49" type="curve"/>
			<point x="692" y="62" type="line"/>
			<point x="595" y="46"/>
			<point x="499" y="31"/>
		</contour>
		<contour>
			<point x="346" y="775" type="line"/>
			<point x="346" y="427" type="line"/>
			<point x="346" y="286"/>
			<point x="339" y="99"/>
			<point x="252" y="-26" type="curve"/>
			<point x="283" y="-40"/>
			<point x="339" y="-75"/>
			<point x="363" y="-96" type="curve"/>
			<point x="458" y="42"/>
			<point x="473" y="268"/>
			<point x="473" y="427" type="curve"/>
			<point x="473" y="775" type="line"/>
		</contour>
		<contour>
			<point x="17" y="366" type="curve"/>
			<point x="47" y="227" type="line"/>
			<point x="134" y="250"/>
			<point x="240" y="279"/>
			<point x="338" y="307" type="curve"/>
			<point x="320" y="437" type="line"/>
			<point x="210" y="409"/>
			<point x="96" y="381"/>
		</contour>
		<contour>
			<point x="35" y="672" type="line"/>
			<point x="35" y="539" type="line"/>
			<point x="333" y="539" type="line"/>
			<point x="333" y="672" type="line"/>
		</contour>
		<contour>
			<point x="128" y="854" type="line"/>
			<point x="128" y="54" type="line"/>
			<point x="128" y="41"/>
			<point x="124" y="38"/>
			<point x="112" y="38" type="curve"/>
			<point x="100" y="37"/>
			<point x="67" y="37"/>
			<point x="35" y="39" type="curve"/>
			<point x="52" y="0"/>
			<point x="68" y="-60"/>
			<point x="71" y="-96" type="curve"/>
			<point x="137" y="-96"/>
			<point x="183" y="-91"/>
			<point x="217" y="-68" type="curve"/>
			<point x="251" y="-46"/>
			<point x="261" y="-9"/>
			<point x="261" y="54" type="curve"/>
			<point x="261" y="854" type="line"/>
		</contour>
	</outline>
</glyph>
<glyph name="c17751" format="1">
	<advance width="1000"/>
	<outline>
		<contour>
			<point x="125" y="795" type="line"/>
			<point x="125" y="666" type="line"/>
			<point x="246" y="666" type="line"/>
			<point x="246" y="234" type="line"/>
			<point x="125" y="234" type="line"/>
			<point x="125" y="105" type="line"/>
			<point x="377" y="105" type="line"/>
			<point x="377" y="795" type="line"/>
		</contour>
		<contour>
			<point x="134" y="516" type="line"/>
			<point x="134" y="390" type="line"/>
			<point x="319" y="390" type="line"/>
			<point x="319" y="516" type="line"/>
		</contour>
		<contour>
			<point x="57" y="795" type="line"/>
			<point x="57" y="30" type="line"/>
			<point x="188" y="30" type="line"/>
			<point x="188" y="795" type="line"/>
		</contour>
		<contour>
			<point x="379" y="35" type="line"/>
			<point x="379" y="-83" type="line"/>
			<point x="974" y="-83" type="line"/>
			<point x="974" y="35" type="line"/>
		</contour>
		<contour>
			<point x="455" y="203" type="line"/>
			<point x="455" y="94" type="line"/>
			<point x="915" y="94" type="line"/>
			<point x="915" y="203" type="line"/>
		</contour>
		<contour>
			<point x="567" y="580" type="line"/>
			<point x="792" y="580" type="line"/>
			<point x="792" y="547" type="line"/>
			<point x="567" y="547" type="line"/>
		</contour>
		<contour>
			<point x="567" y="713" type="line"/>
			<point x="792" y="713" type="line"/>
			<point x="792" y="680" type="line"/>
			<point x="567" y="680" type="line"/>
		</contour>
		<contour>
			<point x="436" y="820" type="line"/>
			<point x="436" y="440" type="line"/>
			<point x="929" y="440" type="line"/>
			<point x="929" y="820" type="line"/>
		</contour>
		<contour>
			<point x="614" y="454" type="line"/>
			<point x="614" y="-10" type="line"/>
			<point x="753" y="-10" type="line"/>
			<point x="753" y="454" type="line"/>
		</contour>
		<contour>
			<point x="454" y="447" type="line"/>
			<point x="430" y="376"/>
			<point x="388" y="302"/>
			<point x="340" y="254" type="curve"/>
			<point x="368" y="237"/>
			<point x="416" y="202"/>
			<point x="439" y="181" type="curve"/>
			<point x="489" y="238"/>
			<point x="542" y="329"/>
			<point x="573" y="416" type="curve"/>
		</contour>
		<contour>
			<point x="509" y="369" type="line"/>
			<point x="452" y="255" type="line"/>
			<point x="942" y="255" type="line"/>
			<point x="942" y="369" type="line"/>
		</contour>
	</outline>
</glyph>
<glyph name="c17852" format="1">
	<advance width="1000"/>
	<outline>
		<contour>
			<point x="37" y="661" type="line"/>
			<point x="37" y="531" type="line"/>
			<point x="344" y="531" type="line"/>
			<point x="344" y="661" type="line"/>
		</contour>
		<contour>
			<point x="142" y="855" type="line"/>
			<point x="142" y="-95" type="line"/>
			<point x="275" y="-95" type="line"/>
			<point x="275" y="855" type="line"/>
		</contour>
		<contour>
			<point x="148" y="564" type="line"/>
			<point x="127" y="446"/>
			<point x="74" y="290"/>
			<point x="13" y="197" type="curve"/>
			<point x="34" y="162"/>
			<point x="65" y="107"/>
			<point x="78" y="67" type="curve"/>
			<point x="150" y="178"/>
			<point x="204" y="378"/>
			<point x="233" y="536" type="curve"/>
		</contour>
		<contour>
			<point x="269" y="521" type="curve"/>
			<point x="210" y="448" type="line"/>
			<point x="237" y="398"/>
			<point x="288" y="295"/>
			<point x="312" y="233" type="curve"/>
			<point x="384" y="362" type="line"/>
			<point x="368" y="385"/>
			<point x="290" y="497"/>
		</contour>
		<contour>
			<point x="427" y="776" type="line"/>
			<point x="427" y="656" type="line"/>
			<point x="963" y="656" type="line"/>
			<point x="963" y="776" type="line"/>
		</contour>
		<contour>
			<point x="549" y="238" type="line"/>
			<point x="549" y="131" type="line"/>
			<point x="698" y="131" type="line"/>
			<point x="698" y="238" type="line"/>
		</contour>
		<contour>
			<point x="499" y="323" type="line"/>
			<point x="499" y="3" type="line"/>
			<point x="617" y="3" type="line"/>
			<point x="617" y="323" type="line"/>
		</contour>
		<contour>
			<point x="606" y="855" type="line"/>
			<point x="606" y="702" type="line"/>
			<point x="742" y="702" type="line"/>
			<point x="742" y="855" type="line"/>
		</contour>
		<contour>
			<point x="527" y="664" type="line"/>
			<point x="527" y="394" type="line"/>
			<point x="640" y="394" type="line"/>
			<point x="640" y="664" type="line"/>
		</contour>
		<contour>
			<point x="682" y="664" type="line"/>
			<point x="682" y="394" type="line"/>
			<point x="795" y="394" type="line"/>
			<point x="795" y="664" type="line"/>
		</contour>
		<contour>
			<point x="904" y="276" type="line"/>
			<point x="864" y="244"/>
			<point x="798" y="200"/>
			<point x="755" y="179" type="curve"/>
			<point x="812" y="92" type="line"/>
			<point x="857" y="114"/>
			<point x="924" y="150"/>
			<point x="970" y="185" type="curve"/>
		</contour>
		<contour>
			<point x="446" y="592" type="line"/>
			<point x="446" y="481" type="line"/>
			<point x="840" y="481" type="line"/>
			<point x="840" y="411" type="line"/>
			<point x="446" y="411" type="line"/>
			<point x="446" y="300" type="line"/>
			<point x="961" y="300" type="line"/>
			<point x="961" y="592" type="line"/>
		</contour>
		<contour>
			<point x="713" y="323" type="line"/>
			<point x="713" y="50" type="line"/>
			<point x="713" y="-55"/>
			<point x="732" y="-89"/>
			<point x="823" y="-89" type="curve"/>
			<point x="840" y="-89"/>
			<point x="862" y="-89"/>
			<point x="880" y="-89" type="curve"/>
			<point x="948" y="-89"/>
			<point x="977" y="-55"/>
			<point x="988" y="63" type="curve"/>
			<point x="956" y="71"/>
			<point x="908" y="90"/>
			<point x="885" y="108" type="curve"/>
			<point x="882" y="31"/>
			<point x="879" y="18"/>
			<point x="866" y="18" type="curve"/>
			<point x="862" y="18"/>
			<point x="849" y="18"/>
			<point x="845" y="18" type="curve"/>
			<point x="834" y="18"/>
			<point x="833" y="21"/>
			<point x="833" y="50" type="curve"/>
			<point x="833" y="323" type="line"/>
		</contour>
		<contour>
			<point x="446" y="30" type="curve"/>
			<point x="461" y="-91" type="line"/>
			<point x="535" y="-80"/>
			<point x="620" y="-68"/>
			<point x="702" y="-55" type="curve"/>
			<point x="695" y="60" type="line"/>
			<point x="603" y="48"/>
			<point x="512" y="37"/>
		</contour>
		<contour>
			<point x="358" y="776" type="line"/>
			<point x="358" y="449" type="line"/>
			<point x="358" y="307"/>
			<point x="353" y="111"/>
			<point x="283" y="-21" type="curve"/>
			<point x="312" y="-35"/>
			<point x="368" y="-76"/>
			<point x="390" y="-99" type="curve"/>
			<point x="472" y="49"/>
			<point x="486" y="289"/>
			<point x="486" y="449" type="curve"/>
			<point x="486" y="776" type="line"/>
		</contour>
	</outline>
</glyph>
<glyph name="c18165" format="1">
	<advance width="1000"/>
	<outline>
		<contour>
			<point x="233" y="784" type="line"/>
			<point x="233" y="670" type="line"/>
			<point x="967" y="670" type="line"/>
			<point x="967" y="784" type="line"/>
		</contour>
		<contour>
			<point x="156" y="784" type="line"/>
			<point x="156" y="461" type="line"/>
			<point x="156" y="318"/>
			<point x="147" y="130"/>
			<point x="41" y="4" type="curve"/>
			<point x="68" y="-13"/>
			<point x="121" y="-64"/>
			<point x="141" y="-90" type="curve"/>
			<point x="266" y="52"/>
			<point x="287" y="296"/>
			<point x="287" y="460" type="curve"/>
			<point x="287" y="784" type="line"/>
		</contour>
		<contour>
			<point x="470" y="855" type="line"/>
			<point x="470" y="706" type="line"/>
			<point x="624" y="706" type="line"/>
			<point x="624" y="855" type="line"/>
		</contour>
		<contour>
			<point x="19" y="646" type="line"/>
			<point x="43" y="580"/>
			<point x="64" y="494"/>
			<point x="68" y="441" type="curve"/>
			<point x="178" y="491" type="line"/>
			<point x="172" y="543"/>
			<point x="148" y="625"/>
			<point x="121" y="689" type="curve"/>
		</contour>
		<contour>
			<point x="12" y="312" type="curve"/>
			<point x="51" y="180" type="line"/>
			<point x="110" y="214"/>
			<point x="172" y="251"/>
			<point x="230" y="289" type="curve"/>
			<point x="197" y="398" type="line"/>
			<point x="127" y="364"/>
			<point x="60" y="331"/>
		</contour>
		<contour>
			<point x="304" y="639" type="line"/>
			<point x="304" y="538" type="line"/>
			<point x="948" y="538" type="line"/>
			<point x="948" y="639" type="line"/>
		</contour>
		<contour>
			<point x="281" y="176" type="line"/>
			<point x="281" y="73" type="line"/>
			<point x="961" y="73" type="line"/>
			<point x="961" y="176" type="line"/>
		</contour>
		<contour>
			<point x="431" y="679" type="line"/>
			<point x="431" y="485" type="line"/>
			<point x="555" y="485" type="line"/>
			<point x="555" y="679" type="line"/>
		</contour>
		<contour>
			<point x="670" y="679" type="line"/>
			<point x="670" y="485" type="line"/>
			<point x="794" y="485" type="line"/>
			<point x="794" y="679" type="line"/>
		</contour>
		<contour>
			<point x="461" y="316" type="line"/>
			<point x="765" y="316" type="line"/>
			<point x="765" y="291" type="line"/>
			<point x="461" y="291" type="line"/>
		</contour>
		<contour>
			<point x="461" y="421" type="line"/>
			<point x="765" y="421" type="line"/>
			<point x="765" y="397" type="line"/>
			<point x="461" y="397" type="line"/>
		</contour>
		<contour>
			<point x="332" y="507" type="line"/>
			<point x="332" y="205" type="line"/>
			<point x="901" y="205" type="line"/>
			<point x="901" y="507" type="line"/>
		</contour>
		<contour>
			<point x="548" y="232" type="line"/>
			<point x="537" y="98"/>
			<point x="512" y="38"/>
			<point x="262" y="7" type="curve"/>
			<point x="285" y="-18"/>
			<point x="314" y="-65"/>
			<point x="323" y="-96" type="curve"/>
			<point x="614" y="-49"/>
			<point x="660" y="49"/>
			<point x="675" y="232" type="curve"/>
		</contour>
		<contour>
			<point x="691" y="117" type="curve"/>
			<point x="578" y="101" type="line"/>
			<point x="635" y="-20"/>
			<point x="728" y="-77"/>
			<point x="909" y="-95" type="curve"/>
			<point x="924" y="-61"/>
			<point x="955" y="-12"/>
			<point x="981" y="14" type="curve"/>
			<point x="828" y="18"/>
			<point x="733" y="47"/>
		</contour>
	</outline>
</glyph>
<glyph name="c18480" format="1">
	<advance width="1000"/>
	<outline>
		<contour>
			<point x="56" y="803" type="line"/>
			<point x="56" y="674" type="line"/>
			<point x="948" y="674" type="line"/>
			<point x="948" y="803" type="line"/>
		</contour>
		<contour>
			<point x="252" y="855" type="line"/>
			<point x="252" y="639" type="line"/>
			<point x="396" y="639" type="line"/>
			<point x="396" y="855" type="line"/>
		</contour>
		<contour>
			<point x="601" y="855" type="line"/>
			<point x="601" y="639" type="line"/>
			<point x="746" y="639" type="line"/>
			<point x="746" y="855" type="line"/>
		</contour>
		<contour>
			<point x="143" y="619" type="line"/>
			<point x="143" y="403" type="line"/>
			<point x="143" y="277"/>
			<point x="134" y="103"/>
			<point x="24" y="-14" type="curve"/>
			<point x="58" y="-30"/>
			<point x="121" y="-74"/>
			<point x="147" y="-99" type="curve"/>
			<point x="266" y="32"/>
			<point x="287" y="250"/>
			<point x="287" y="401" type="curve"/>
			<point x="287" y="619" type="line"/>
		</contour>
		<contour>
			<point x="226" y="619" type="line"/>
			<point x="226" y="502" type="line"/>
			<point x="752" y="502" type="line"/>
			<point x="752" y="460" type="line"/>
			<point x="226" y="460" type="line"/>
			<point x="226" y="343" type="line"/>
			<point x="896" y="343" type="line"/>
			<point x="896" y="619" type="line"/>
		</contour>
		<contour>
			<point x="329" y="319" type="line"/>
			<point x="329" y="88" type="line"/>
			<point x="329" y="-44"/>
			<point x="374" y="-84"/>
			<point x="545" y="-84" type="curve"/>
			<point x="580" y="-84"/>
			<point x="724" y="-84"/>
			<point x="762" y="-84" type="curve"/>
			<point x="902" y="-84"/>
			<point x="943" y="-45"/>
			<point x="962" y="110" type="curve"/>
			<point x="923" y="118"/>
			<point x="862" y="139"/>
			<point x="830" y="161" type="curve"/>
			<point x="823" y="62"/>
			<point x="813" y="48"/>
			<point x="753" y="48" type="curve"/>
			<point x="712" y="48"/>
			<point x="588" y="48"/>
			<point x="555" y="48" type="curve"/>
			<point x="481" y="48"/>
			<point x="470" y="52"/>
			<point x="470" y="91" type="curve"/>
			<point x="470" y="319" type="line"/>
		</contour>
		<contour>
			<point x="779" y="331" type="line"/>
			<point x="686" y="286"/>
			<point x="534" y="249"/>
			<point x="391" y="228" type="curve"/>
			<point x="407" y="199"/>
			<point x="427" y="148"/>
			<point x="433" y="116" type="curve"/>
			<point x="586" y="135"/>
			<point x="761" y="170"/>
			<point x="892" y="227" type="curve"/>
		</contour>
	</outline>
</glyph>
<glyph name="c18868" format="1">
	<advance width="1000"/>
	<outline>
		<contour>
			<point x="399" y="210" type="line"/>
			<point x="399" y="94" type="line"/>
			<point x="976" y="94" type="line"/>
			<point x="976" y="210" type="line"/>
		</contour>
		<contour>
			<point x="421" y="397" type="line"/>
			<point x="421" y="283" type="line"/>
			<point x="957" y="283" type="line"/>
			<point x="957" y="397" type="line"/>
		</contour>
		<contour>
			<point x="476" y="825" type="line"/>
			<point x="476" y="730" type="line"/>
			<point x="561" y="730" type="line"/>
			<point x="561" y="685" type="line"/>
			<point x="476" y="685" type="line"/>
			<point x="476" y="590" type="line"/>
			<point x="664" y="590" type="line"/>
			<point x="664" y="825" type="line"/>
		</contour>
		<contour>
			<point x="516" y="467" type="line"/>
			<point x="516" y="147" type="line"/>
			<point x="646" y="147" type="line"/>
			<point x="646" y="467" type="line"/>
		</contour>
		<contour>
			<point x="728" y="467" type="line"/>
			<point x="728" y="147" type="line"/>
			<point x="861" y="147" type="line"/>
			<point x="861" y="467" type="line"/>
		</contour>
		<contour>
			<point x="408" y="825" type="line"/>
			<point x="408" y="575" type="line"/>
			<point x="408" y="477"/>
			<point x="430" y="449"/>
			<point x="514" y="449" type="curve"/>
			<point x="531" y="449"/>
			<point x="568" y="449"/>
			<point x="586" y="449" type="curve"/>
			<point x="646" y="449"/>
			<point x="675" y="472"/>
			<point x="687" y="549" type="curve"/>
			<point x="657" y="556"/>
			<point x="614" y="572"/>
			<point x="594" y="588" type="curve"/>
			<point x="592" y="553"/>
			<point x="588" y="547"/>
			<point x="573" y="547" type="curve"/>
			<point x="565" y="547"/>
			<point x="539" y="547"/>
			<point x="532" y="547" type="curve"/>
			<point x="515" y="547"/>
			<point x="513" y="550"/>
			<point x="513" y="576" type="curve"/>
			<point x="513" y="825" type="line"/>
		</contour>
		<contour>
			<point x="750" y="825" type="line"/>
			<point x="750" y="730" type="line"/>
			<point x="841" y="730" type="line"/>
			<point x="841" y="685" type="line"/>
			<point x="750" y="685" type="line"/>
			<point x="750" y="590" type="line"/>
			<point x="948" y="590" type="line"/>
			<point x="948" y="825" type="line"/>
		</contour>
		<contour>
			<point x="684" y="825" type="line"/>
			<point x="684" y="575" type="line"/>
			<point x="684" y="476"/>
			<point x="707" y="447"/>
			<point x="792" y="447" type="curve"/>
			<point x="810" y="447"/>
			<point x="848" y="447"/>
			<point x="866" y="447" type="curve"/>
			<point x="928" y="447"/>
			<point x="957" y="470"/>
			<point x="970" y="549" type="curve"/>
			<point x="939" y="555"/>
			<point x="896" y="572"/>
			<point x="876" y="588" type="curve"/>
			<point x="873" y="553"/>
			<point x="869" y="547"/>
			<point x="854" y="547" type="curve"/>
			<point x="845" y="547"/>
			<point x="818" y="547"/>
			<point x="811" y="547" type="curve"/>
			<point x="793" y="547"/>
			<point x="791" y="550"/>
			<point x="791" y="577" type="curve"/>
			<point x="791" y="825" type="line"/>
		</contour>
		<contour>
			<point x="709" y="32" type="line"/>
			<point x="771" y="-4"/>
			<point x="850" y="-59"/>
			<point x="887" y="-97" type="curve"/>
			<point x="980" y="-8" type="line"/>
			<point x="939" y="29"/>
			<point x="857" y="80"/>
			<point x="796" y="112" type="curve"/>
		</contour>
		<contour>
			<point x="567" y="107" type="line"/>
			<point x="525" y="67"/>
			<point x="442" y="15"/>
			<point x="373" y="-12" type="curve"/>
			<point x="402" y="-34"/>
			<point x="443" y="-72"/>
			<point x="465" y="-96" type="curve"/>
			<point x="535" y="-67"/>
			<point x="623" y="-12"/>
			<point x="676" y="36" type="curve"/>
		</contour>
		<contour>
			<point x="34" y="49" type="curve"/>
			<point x="64" y="-79" type="line"/>
			<point x="160" y="-61"/>
			<point x="281" y="-39"/>
			<point x="394" y="-16" type="curve"/>
			<point x="384" y="105" type="line"/>
			<point x="258" y="83"/>
			<point x="125" y="61"/>
		</contour>
		<contour>
			<point x="86" y="602" type="line"/>
			<point x="86" y="484" type="line"/>
			<point x="366" y="484" type="line"/>
			<point x="366" y="602" type="line"/>
		</contour>
		<contour>
			<point x="50" y="433" type="line"/>
			<point x="50" y="312" type="line"/>
			<point x="384" y="312" type="line"/>
			<point x="384" y="433" type="line"/>
		</contour>
		<contour>
			<point x="48" y="258" type="line"/>
			<point x="60" y="205"/>
			<point x="72" y="136"/>
			<point x="74" y="90" type="curve"/>
			<point x="165" y="114" type="line"/>
			<point x="161" y="159"/>
			<point x="148" y="227"/>
			<point x="134" y="279" type="curve"/>
		</contour>
		<contour>
			<point x="310" y="286" type="line"/>
			<point x="304" y="241"/>
			<point x="291" y="175"/>
			<point x="279" y="133" type="curve"/>
			<point x="362" y="112" type="line"/>
			<point x="375" y="151"/>
			<point x="389" y="209"/>
			<point x="406" y="264" type="curve"/>
		</contour>
		<contour>
			<point x="164" y="556" type="line"/>
			<point x="164" y="22" type="line"/>
			<point x="282" y="41" type="line"/>
			<point x="282" y="556" type="line"/>
		</contour>
		<contour>
			<point x="167" y="855" type="line"/>
			<point x="138" y="777"/>
			<point x="85" y="685"/>
			<point x="5" y="615" type="curve"/>
			<point x="32" y="596"/>
			<point x="73" y="549"/>
			<point x="91" y="520" type="curve"/>
			<point x="189" y="613"/>
			<point x="246" y="716"/>
			<point x="284" y="792" type="curve"/>
			<point x="284" y="830" type="line"/>
			<point x="244" y="830" type="line"/>
			<point x="244" y="855" type="line"/>
		</contour>
		<contour>
			<point x="182" y="855" type="line"/>
			<point x="182" y="756" type="line"/>
			<point x="203" y="756" type="line"/>
			<point x="248" y="713"/>
			<point x="305" y="627"/>
			<point x="328" y="578" type="curve"/>
			<point x="427" y="685" type="line"/>
			<point x="398" y="737"/>
			<point x="334" y="806"/>
			<point x="283" y="855" type="curve"/>
		</contour>
	</outline>
</glyph>
<glyph name="c19523" format="1">
	<advance width="1000"/>
	<outline>
		<contour>
			<point x="25" y="363" type="line"/>
			<point x="25" y="234" type="line"/>
			<point x="291" y="234" type="line"/>
			<point x="291" y="363" type="line"/>
		</contour>
		<contour>
			<point x="244" y="855" type="line"/>
			<point x="244" y="-95" type="line"/>
			<point x="380" y="-95" type="line"/>
			<point x="380" y="855" type="line"/>
		</contour>
		<contour>
			<point x="75" y="309" type="line"/>
			<point x="75" y="251" type="line"/>
			<point x="75" y="185"/>
			<point x="69" y="51"/>
			<point x="17" y="-34" type="curve"/>
			<point x="49" y="-47"/>
			<point x="105" y="-78"/>
			<point x="130" y="-98" type="curve"/>
			<point x="195" y="4"/>
			<point x="205" y="169"/>
			<point x="205" y="247" type="curve"/>
			<point x="205" y="309" type="line"/>
		</contour>
		<contour>
			<point x="394" y="734" type="line"/>
			<point x="394" y="618" type="line"/>
			<point x="975" y="618" type="line"/>
			<point x="975" y="734" type="line"/>
		</contour>
		<contour>
			<point x="397" y="285" type="line"/>
			<point x="397" y="170" type="line"/>
			<point x="974" y="170" type="line"/>
			<point x="974" y="285" type="line"/>
		</contour>
		<contour>
			<point x="614" y="355" type="line"/>
			<point x="614" y="-95" type="line"/>
			<point x="751" y="-95" type="line"/>
			<point x="751" y="355" type="line"/>
		</contour>
		<contour>
			<point x="582" y="217" type="line"/>
			<point x="539" y="140"/>
			<point x="454" y="63"/>
			<point x="367" y="22" type="curve"/>
			<point x="396" y="-2"/>
			<point x="436" y="-50"/>
			<point x="456" y="-81" type="curve"/>
			<point x="550" y="-25"/>
			<point x="635" y="76"/>
			<point x="686" y="181" type="curve"/>
		</contour>
		<contour>
			<point x="785" y="219" type="curve"/>
			<point x="691" y="183" type="line"/>
			<point x="741" y="86"/>
			<point x="823" y="-17"/>
			<point x="902" y="-75" type="curve"/>
			<point x="923" y="-42"/>
			<point x="966" y="5"/>
			<point x="995" y="29" type="curve"/>
			<point x="917" y="72"/>
			<point x="831" y="148"/>
		</contour>
		<contour>
			<point x="613" y="856" type="line"/>
			<point x="613" y="481" type="line"/>
			<point x="909" y="481" type="line"/>
			<point x="909" y="833" type="line"/>
			<point x="784" y="834" type="line"/>
			<point x="784" y="579" type="line"/>
			<point x="733" y="579" type="line"/>
			<point x="733" y="856" type="line"/>
		</contour>
		<contour>
			<point x="449" y="836" type="line"/>
			<point x="449" y="336" type="line"/>
			<point x="961" y="336" type="line"/>
			<point x="961" y="449" type="line"/>
			<point x="570" y="449" type="line"/>
			<point x="570" y="836" type="line"/>
		</contour>
		<contour>
			<point x="63" y="799" type="line"/>
			<point x="63" y="451" type="line"/>
			<point x="330" y="451" type="line"/>
			<point x="330" y="580" type="line"/>
			<point x="192" y="580" type="line"/>
			<point x="192" y="799" type="line"/>
		</contour>
	</outline>
</glyph>
<glyph name="c19753" format="1">
	<advance width="1000"/>
	<outline>
		<contour>
			<point x="51" y="815" type="line"/>
			<point x="51" y="720" type="line"/>
			<point x="952" y="720" type="line"/>
			<point x="952" y="815" type="line"/>
		</contour>
		<contour>
			<point x="269" y="855" type="line"/>
			<point x="269" y="679" type="line"/>
			<point x="410" y="679" type="line"/>
			<point x="410" y="855" type="line"/>
		</contour>
		<contour>
			<point x="586" y="855" type="line"/>
			<point x="586" y="679" type="line"/>
			<point x="728" y="679" type="line"/>
			<point x="728" y="855" type="line"/>
		</contour>
		<contour>
			<point x="118" y="696" type="line"/>
			<point x="118" y="611" type="line"/>
			<point x="879" y="611" type="line"/>
			<point x="879" y="696" type="line"/>
		</contour>
		<contour>
			<point x="209" y="494" type="line"/>
			<point x="209" y="433" type="line"/>
			<point x="399" y="433" type="line"/>
			<point x="399" y="494" type="line"/>
		</contour>
		<contour>
			<point x="196" y="414" type="line"/>
			<point x="196" y="352" type="line"/>
			<point x="399" y="352" type="line"/>
			<point x="399" y="414" type="line"/>
		</contour>
		<contour>
			<point x="595" y="413" type="line"/>
			<point x="595" y="351" type="line"/>
			<point x="798" y="351" type="line"/>
			<point x="798" y="413" type="line"/>
		</contour>
		<contour>
			<point x="569" y="0" type="line"/>
			<point x="569" y="-79" type="line"/>
			<point x="817" y="-79" type="line"/>
			<point x="817" y="0" type="line"/>
		</contour>
		<contour>
			<point x="288" y="130" type="line"/>
			<point x="288" y="52" type="line"/>
			<point x="446" y="52" type="line"/>
			<point x="446" y="130" type="line"/>
		</contour>
		<contour>
			<point x="596" y="494" type="line"/>
			<point x="596" y="433" type="line"/>
			<point x="786" y="433" type="line"/>
			<point x="786" y="494" type="line"/>
		</contour>
		<contour>
			<point x="427" y="666" type="line"/>
			<point x="427" y="351" type="line"/>
			<point x="568" y="351" type="line"/>
			<point x="568" y="666" type="line"/>
		</contour>
		<contour>
			<point x="50" y="591" type="line"/>
			<point x="50" y="444" type="line"/>
			<point x="178" y="444" type="line"/>
			<point x="178" y="513" type="line"/>
			<point x="818" y="513" type="line"/>
			<point x="818" y="444" type="line"/>
			<point x="952" y="444" type="line"/>
			<point x="952" y="591" type="line"/>
		</contour>
		<contour>
			<point x="207" y="257" type="line"/>
			<point x="328" y="257" type="line"/>
			<point x="328" y="229" type="line"/>
			<point x="207" y="229" type="line"/>
		</contour>
		<contour>
			<point x="93" y="332" type="line"/>
			<point x="93" y="153" type="line"/>
			<point x="449" y="153" type="line"/>
			<point x="449" y="332" type="line"/>
		</contour>
		<contour>
			<point x="524" y="104" type="line"/>
			<point x="524" y="-94" type="line"/>
			<point x="644" y="-94" type="line"/>
			<point x="644" y="23" type="line"/>
			<point x="763" y="23" type="line"/>
			<point x="763" y="-92" type="line"/>
			<point x="889" y="-92" type="line"/>
			<point x="889" y="104" type="line"/>
		</contour>
		<contour>
			<point x="612" y="282" type="curve"/>
			<point x="526" y="255" type="line"/>
			<point x="606" y="151"/>
			<point x="747" y="90"/>
			<point x="921" y="67" type="curve"/>
			<point x="934" y="93"/>
			<point x="961" y="133"/>
			<point x="982" y="154" type="curve"/>
			<point x="818" y="167"/>
			<point x="678" y="209"/>
		</contour>
		<contour>
			<point x="603" y="362" type="line"/>
			<point x="570" y="315"/>
			<point x="510" y="270"/>
			<point x="422" y="237" type="curve"/>
			<point x="445" y="223"/>
			<point x="479" y="190"/>
			<point x="495" y="167" type="curve"/>
			<point x="594" y="214"/>
			<point x="659" y="270"/>
			<point x="708" y="343" type="curve"/>
		</contour>
		<contour>
			<point x="794" y="326" type="line"/>
			<point x="794" y="311" type="line"/>
			<point x="735" y="220"/>
			<point x="582" y="159"/>
			<point x="432" y="133" type="curve"/>
			<point x="451" y="114"/>
			<point x="476" y="79"/>
			<point x="488" y="56" type="curve"/>
			<point x="657" y="93"/>
			<point x="823" y="162"/>
			<point x="903" y="292" type="curve"/>
			<point x="832" y="330" type="line"/>
			<point x="814" y="326" type="line"/>
		</contour>
		<contour>
			<point x="50" y="12" type="curve"/>
			<point x="56" y="-81" type="line"/>
			<point x="168" y="-74"/>
			<point x="323" y="-65"/>
			<point x="472" y="-55" type="curve"/>
			<point x="473" y="33" type="line"/>
			<point x="318" y="24"/>
			<point x="158" y="16"/>
		</contour>
		<contour>
			<point x="622" y="326" type="line"/>
			<point x="569" y="251" type="line"/>
			<point x="821" y="251" type="line"/>
			<point x="821" y="326" type="line"/>
		</contour>
		<contour>
			<point x="225" y="180" type="line"/>
			<point x="225" y="-19" type="line"/>
			<point x="342" y="-14" type="line"/>
			<point x="342" y="180" type="line"/>
		</contour>
		<contour>
			<point x="98" y="136" type="line"/>
			<point x="98" y="-35" type="line"/>
			<point x="200" y="-25" type="line"/>
			<point x="200" y="136" type="line"/>
		</contour>
	</outline>
</glyph>
<glyph name="c21305" format="1">
	<advance width="1000"/>
	<outline>
		<contour>
			<point x="224" y="49" type="line"/>
			<point x="224" y="-67" type="line"/>
			<point x="787" y="-67" type="line"/>
			<point x="787" y="49" type="line"/>
		</contour>
		<contour>
			<point x="146" y="209" type="line"/>
			<point x="146" y="-95" type="line"/>
			<point x="283" y="-95" type="line"/>
			<point x="283" y="93" type="line"/>
			<point x="721" y="93" type="line"/>
			<point x="721" y="-89" type="line"/>
			<point x="865" y="-89" type="line"/>
			<point x="865" y="209" type="line"/>
		</contour>
		<contour>
			<point x="326" y="792" type="line"/>
			<point x="326" y="697" type="line"/>
			<point x="961" y="697" type="line"/>
			<point x="961" y="792" type="line"/>
		</contour>
		<contour>
			<point x="45" y="632" type="line"/>
			<point x="104" y="609"/>
			<point x="179" y="569"/>
			<point x="214" y="539" type="curve"/>
			<point x="281" y="630" type="line"/>
			<point x="242" y="660"/>
			<point x="166" y="695"/>
			<point x="108" y="715" type="curve"/>
		</contour>
		<contour>
			<point x="97" y="768" type="line"/>
			<point x="154" y="745"/>
			<point x="227" y="706"/>
			<point x="261" y="677" type="curve"/>
			<point x="328" y="767" type="line"/>
			<point x="291" y="796"/>
			<point x="217" y="831"/>
			<point x="160" y="850" type="curve"/>
		</contour>
		<contour>
			<point x="415" y="840" type="line"/>
			<point x="426" y="821"/>
			<point x="436" y="795"/>
			<point x="440" y="778" type="curve"/>
			<point x="564" y="797" type="line"/>
			<point x="559" y="815"/>
			<point x="546" y="840"/>
			<point x="534" y="858" type="curve"/>
		</contour>
		<contour>
			<point x="507" y="529" type="line"/>
			<point x="764" y="529" type="line"/>
			<point x="764" y="507" type="line"/>
			<point x="507" y="507" type="line"/>
		</contour>
		<contour>
			<point x="507" y="452" type="line"/>
			<point x="764" y="452" type="line"/>
			<point x="764" y="429" type="line"/>
			<point x="507" y="429" type="line"/>
		</contour>
		<contour>
			<point x="507" y="605" type="line"/>
			<point x="764" y="605" type="line"/>
			<point x="764" y="584" type="line"/>
			<point x="507" y="584" type="line"/>
		</contour>
		<contour>
			<point x="373" y="670" type="line"/>
			<point x="373" y="365" type="line"/>
			<point x="904" y="365" type="line"/>
			<point x="904" y="670" type="line"/>
		</contour>
		<contour>
			<point x="282" y="540" type="line"/>
			<point x="44" y="540" type="line"/>
			<point x="44" y="439" type="line"/>
			<point x="151" y="439" type="line"/>
			<point x="151" y="353" type="line"/>
			<point x="282" y="353" type="line"/>
		</contour>
		<contour>
			<point x="561" y="737" type="line"/>
			<point x="560" y="713"/>
			<point x="554" y="680"/>
			<point x="548" y="651" type="curve"/>
			<point x="663" y="637" type="line"/>
			<point x="674" y="661"/>
			<point x="689" y="691"/>
			<point x="705" y="729" type="curve"/>
		</contour>
		<contour>
			<point x="733" y="858" type="line"/>
			<point x="726" y="841"/>
			<point x="711" y="818"/>
			<point x="699" y="797" type="curve"/>
			<point x="812" y="777" type="line"/>
			<point x="825" y="793"/>
			<point x="841" y="810"/>
			<point x="862" y="838" type="curve"/>
		</contour>
		<contour>
			<point x="282" y="411" type="curve"/>
			<point x="186" y="411" type="line"/>
			<point x="137" y="385"/>
			<point x="82" y="359"/>
			<point x="34" y="340" type="curve"/>
			<point x="81" y="227" type="line"/>
			<point x="138" y="260"/>
			<point x="187" y="289"/>
			<point x="235" y="319" type="curve"/>
			<point x="284" y="258"/>
			<point x="346" y="238"/>
			<point x="444" y="235" type="curve"/>
			<point x="570" y="230"/>
			<point x="812" y="232"/>
			<point x="944" y="238" type="curve"/>
			<point x="949" y="270"/>
			<point x="967" y="321"/>
			<point x="979" y="347" type="curve"/>
			<point x="833" y="336"/>
			<point x="569" y="333"/>
			<point x="444" y="338" type="curve"/>
			<point x="364" y="341"/>
			<point x="311" y="359"/>
		</contour>
	</outline>
</glyph>
<glyph name="c22029" format="1">
	<advance width="1000"/>
	<outline>
		<contour>
			<point x="253" y="778" type="line"/>
			<point x="253" y="670" type="line"/>
			<point x="969" y="670" type="line"/>
			<point x="969" y="778" type="line"/>
		</contour>
		<contour>
			<point x="470" y="855" type="line"/>
			<point x="470" y="724" type="line"/>
			<point x="615" y="724" type="line"/>
			<point x="615" y="855" type="line"/>
		</contour>
		<contour>
			<point x="152" y="778" type="line"/>
			<point x="152" y="456" type="line"/>
			<point x="152" y="315"/>
			<point x="144" y="127"/>
			<point x="43" y="2" type="curve"/>
			<point x="70" y="-15"/>
			<point x="123" y="-65"/>
			<point x="143" y="-92" type="curve"/>
			<point x="263" y="51"/>
			<point x="283" y="293"/>
			<point x="283" y="456" type="curve"/>
			<point x="283" y="778" type="line"/>
		</contour>
		<contour>
			<point x="20" y="648" type="line"/>
			<point x="44" y="582"/>
			<point x="65" y="496"/>
			<point x="69" y="443" type="curve"/>
			<point x="179" y="493" type="line"/>
			<point x="173" y="545"/>
			<point x="149" y="627"/>
			<point x="122" y="691" type="curve"/>
		</contour>
		<contour>
			<point x="9" y="314" type="curve"/>
			<point x="48" y="182" type="line"/>
			<point x="103" y="214"/>
			<point x="160" y="249"/>
			<point x="213" y="284" type="curve"/>
			<point x="180" y="394" type="line"/>
			<point x="115" y="362"/>
			<point x="53" y="332"/>
		</contour>
		<contour>
			<point x="284" y="88" type="line"/>
			<point x="284" y="-8" type="line"/>
			<point x="960" y="-8" type="line"/>
			<point x="960" y="88" type="line"/>
		</contour>
		<contour>
			<point x="366" y="518" type="line"/>
			<point x="366" y="431" type="line"/>
			<point x="884" y="431" type="line"/>
			<point x="884" y="518" type="line"/>
		</contour>
		<contour>
			<point x="473" y="222" type="line"/>
			<point x="774" y="222" type="line"/>
			<point x="774" y="197" type="line"/>
			<point x="473" y="197" type="line"/>
		</contour>
		<contour>
			<point x="473" y="325" type="line"/>
			<point x="774" y="325" type="line"/>
			<point x="774" y="300" type="line"/>
			<point x="473" y="300" type="line"/>
		</contour>
		<contour>
			<point x="346" y="407" type="line"/>
			<point x="346" y="115" type="line"/>
			<point x="907" y="115" type="line"/>
			<point x="907" y="407" type="line"/>
		</contour>
		<contour>
			<point x="556" y="572" type="line"/>
			<point x="556" y="-94" type="line"/>
			<point x="689" y="-94" type="line"/>
			<point x="689" y="572" type="line"/>
		</contour>
		<contour>
			<point x="309" y="637" type="line"/>
			<point x="309" y="490" type="line"/>
			<point x="427" y="490" type="line"/>
			<point x="427" y="545" type="line"/>
			<point x="824" y="545" type="line"/>
			<point x="824" y="490" type="line"/>
			<point x="948" y="490" type="line"/>
			<point x="948" y="637" type="line"/>
		</contour>
	</outline>
</glyph>
<glyph name="c22050" format="1">
	<advance width="1000"/>
	<outline>
		<contour>
			<point x="668" y="705" type="line"/>
			<point x="749" y="705" type="line"/>
			<point x="749" y="641" type="line"/>
			<point x="668" y="641" type="line"/>
		</contour>
		<contour>
			<point x="456" y="705" type="line"/>
			<point x="536" y="705" type="line"/>
			<point x="536" y="641" type="line"/>
			<point x="456" y="641" type="line"/>
		</contour>
		<contour>
			<point x="245" y="705" type="line"/>
			<point x="324" y="705" type="line"/>
			<point x="324" y="641" type="line"/>
			<point x="245" y="641" type="line"/>
		</contour>
		<contour>
			<point x="108" y="820" type="line"/>
			<point x="108" y="526" type="line"/>
			<point x="894" y="526" type="line"/>
			<point x="894" y="820" type="line"/>
		</contour>
		<contour>
			<point x="568" y="449" type="curve"/>
			<point x="459" y="418" type="line"/>
			<point x="542" y="210"/>
			<point x="675" y="58"/>
			<point x="882" y="-17" type="curve"/>
			<point x="903" y="22"/>
			<point x="946" y="80"/>
			<point x="977" y="110" type="curve"/>
			<point x="778" y="164"/>
			<point x="638" y="289"/>
		</contour>
		<contour>
			<point x="811" y="510" type="line"/>
			<point x="755" y="442"/>
			<point x="661" y="360"/>
			<point x="590" y="310" type="curve"/>
			<point x="689" y="230" type="line"/>
			<point x="762" y="276"/>
			<point x="856" y="349"/>
			<point x="936" y="419" type="curve"/>
		</contour>
		<contour>
			<point x="82" y="433" type="line"/>
			<point x="145" y="385"/>
			<point x="225" y="314"/>
			<point x="259" y="266" type="curve"/>
			<point x="372" y="353" type="line"/>
			<point x="333" y="401"/>
			<point x="249" y="467"/>
			<point x="187" y="511" type="curve"/>
		</contour>
		<contour>
			<point x="426" y="540" type="line"/>
			<point x="426" y="63" type="line"/>
			<point x="426" y="48"/>
			<point x="420" y="44"/>
			<point x="402" y="44" type="curve"/>
			<point x="384" y="43"/>
			<point x="321" y="44"/>
			<point x="272" y="46" type="curve"/>
			<point x="291" y="7"/>
			<point x="311" y="-55"/>
			<point x="317" y="-96" type="curve"/>
			<point x="400" y="-96"/>
			<point x="464" y="-94"/>
			<point x="511" y="-72" type="curve"/>
			<point x="558" y="-50"/>
			<point x="572" y="-12"/>
			<point x="572" y="60" type="curve"/>
			<point x="572" y="540" type="line"/>
		</contour>
		<contour>
			<point x="34" y="136" type="curve"/>
			<point x="89" y="-2" type="line"/>
			<point x="183" y="40"/>
			<point x="299" y="92"/>
			<point x="405" y="143" type="curve"/>
			<point x="375" y="266" type="line"/>
			<point x="251" y="216"/>
			<point x="119" y="164"/>
		</contour>
	</outline>
</glyph>
<glyph name="c22369" format="1">
	<advance width="1000"/>
	<outline>
		<contour>
			<point x="426" y="608" type="line"/>
			<point x="426" y="-94" type="line"/>
			<point x="567" y="-94" type="line"/>
			<point x="567" y="608" type="line"/>
		</contour>
		<contour>
			<point x="87" y="116" type="line"/>
			<point x="87" y="18" type="line"/>
			<point x="911" y="18" type="line"/>
			<point x="911" y="116" type="line"/>
		</contour>
		<contour>
			<point x="66" y="660" type="line"/>
			<point x="66" y="560" type="line"/>
			<point x="935" y="560" type="line"/>
			<point x="935" y="660" type="line"/>
		</contour>
		<contour>
			<point x="51" y="799" type="line"/>
			<point x="51" y="696" type="line"/>
			<point x="952" y="696" type="line"/>
			<point x="952" y="799" type="line"/>
		</contour>
		<contour>
			<point x="45" y="246" type="line"/>
			<point x="45" y="145" type="line"/>
			<point x="955" y="145" type="line"/>
			<point x="955" y="246" type="line"/>
		</contour>
		<contour>
			<point x="269" y="855" type="line"/>
			<point x="269" y="648" type="line"/>
			<point x="410" y="648" type="line"/>
			<point x="410" y="855" type="line"/>
		</contour>
		<contour>
			<point x="585" y="855" type="line"/>
			<point x="585" y="648" type="line"/>
			<point x="727" y="648" type="line"/>
			<point x="727" y="855" type="line"/>
		</contour>
		<contour>
			<point x="241" y="594" type="line"/>
			<point x="214" y="533"/>
			<point x="153" y="485"/>
			<point x="78" y="455" type="curve"/>
			<point x="101" y="438"/>
			<point x="140" y="401"/>
			<point x="157" y="382" type="curve"/>
			<point x="237" y="423"/>
			<point x="309" y="489"/>
			<point x="345" y="573" type="curve"/>
		</contour>
		<contour>
			<point x="236" y="487" type="line"/>
			<point x="281" y="463"/>
			<point x="338" y="425"/>
			<point x="366" y="399" type="curve"/>
			<point x="425" y="475" type="line"/>
			<point x="396" y="500"/>
			<point x="337" y="534"/>
			<point x="293" y="555" type="curve"/>
		</contour>
		<contour>
			<point x="239" y="435" type="line"/>
			<point x="211" y="370"/>
			<point x="148" y="319"/>
			<point x="71" y="287" type="curve"/>
			<point x="94" y="271"/>
			<point x="133" y="234"/>
			<point x="150" y="215" type="curve"/>
			<point x="232" y="257"/>
			<point x="306" y="326"/>
			<point x="343" y="413" type="curve"/>
		</contour>
		<contour>
			<point x="225" y="328" type="line"/>
			<point x="273" y="301"/>
			<point x="334" y="260"/>
			<point x="364" y="231" type="curve"/>
			<point x="425" y="307" type="line"/>
			<point x="394" y="335"/>
			<point x="331" y="373"/>
			<point x="284" y="396" type="curve"/>
		</contour>
		<contour>
			<point x="682" y="594" type="line"/>
			<point x="661" y="536"/>
			<point x="613" y="489"/>
			<point x="550" y="459" type="curve"/>
			<point x="573" y="442"/>
			<point x="612" y="406"/>
			<point x="629" y="386" type="curve"/>
			<point x="699" y="427"/>
			<point x="758" y="493"/>
			<point x="787" y="574" type="curve"/>
		</contour>
		<contour>
			<point x="683" y="487" type="line"/>
			<point x="736" y="458"/>
			<point x="806" y="413"/>
			<point x="839" y="383" type="curve"/>
			<point x="910" y="457" type="line"/>
			<point x="874" y="487"/>
			<point x="803" y="528"/>
			<point x="751" y="554" type="curve"/>
		</contour>
		<contour>
			<point x="686" y="436" type="line"/>
			<point x="665" y="373"/>
			<point x="617" y="322"/>
			<point x="553" y="288" type="curve"/>
			<point x="576" y="272"/>
			<point x="616" y="235"/>
			<point x="632" y="215" type="curve"/>
			<point x="704" y="259"/>
			<point x="763" y="330"/>
			<point x="792" y="416" type="curve"/>
		</contour>
		<contour>
			<point x="686" y="329" type="line"/>
			<point x="739" y="298"/>
			<point x="807" y="250"/>
			<point x="840" y="218" type="curve"/>
			<point x="904" y="295" type="line"/>
			<point x="870" y="327"/>
			<point x="800" y="370"/>
			<point x="748" y="398" type="curve"/>
		</contour>
	</outline>
</glyph>
<glyph name="c22370" format="1">
	<advance width="1000"/>
	<outline>
		<contour>
			<point x="50" y="801" type="line"/>
			<point x="50" y="698" type="line"/>
			<point x="951" y="698" type="line"/>
			<point x="951" y="801" type="line"/>
		</contour>
		<contour>
			<point x="268" y="855" type="line"/>
			<point x="268" y="652" type="line"/>
			<point x="409" y="652" type="line"/>
			<point x="409" y="855" type="line"/>
		</contour>
		<contour>
			<point x="587" y="855" type="line"/>
			<point x="587" y="652" type="line"/>
			<point x="729" y="652" type="line"/>
			<point x="729" y="855" type="line"/>
		</contour>
		<contour>
			<point x="656" y="574" type="line"/>
			<point x="752" y="574" type="line"/>
			<point x="752" y="546" type="line"/>
			<point x="656" y="546" type="line"/>
		</contour>
		<contour>
			<point x="448" y="574" type="line"/>
			<point x="542" y="574" type="line"/>
			<point x="542" y="546" type="line"/>
			<point x="448" y="546" type="line"/>
		</contour>
		<contour>
			<point x="242" y="574" type="line"/>
			<point x="334" y="574" type="line"/>
			<point x="334" y="546" type="line"/>
			<point x="242" y="546" type="line"/>
		</contour>
		<contour>
			<point x="114" y="668" type="line"/>
			<point x="114" y="453" type="line"/>
			<point x="887" y="453" type="line"/>
			<point x="887" y="668" type="line"/>
		</contour>
		<contour>
			<point x="307" y="257" type="line"/>
			<point x="699" y="257" type="line"/>
			<point x="699" y="235" type="line"/>
			<point x="307" y="235" type="line"/>
		</contour>
		<contour>
			<point x="307" y="162" type="line"/>
			<point x="699" y="162" type="line"/>
			<point x="699" y="139" type="line"/>
			<point x="307" y="139" type="line"/>
		</contour>
		<contour>
			<point x="307" y="352" type="line"/>
			<point x="699" y="352" type="line"/>
			<point x="699" y="330" type="line"/>
			<point x="307" y="330" type="line"/>
		</contour>
		<contour>
			<point x="166" y="429" type="line"/>
			<point x="166" y="62" type="line"/>
			<point x="847" y="62" type="line"/>
			<point x="847" y="429" type="line"/>
		</contour>
		<contour>
			<point x="535" y="5" type="line"/>
			<point x="643" y="-27"/>
			<point x="749" y="-68"/>
			<point x="806" y="-96" type="curve"/>
			<point x="990" y="-30" type="line"/>
			<point x="913" y="-1"/>
			<point x="778" y="43"/>
			<point x="667" y="74" type="curve"/>
		</contour>
		<contour>
			<point x="334" y="72" type="line"/>
			<point x="263" y="40"/>
			<point x="139" y="12"/>
			<point x="27" y="-3" type="curve"/>
			<point x="57" y="-25"/>
			<point x="105" y="-73"/>
			<point x="129" y="-100" type="curve"/>
			<point x="235" y="-76"/>
			<point x="371" y="-33"/>
			<point x="458" y="15" type="curve"/>
		</contour>
	</outline>
</glyph>
<glyph name="c22379" format="1">
	<advance width="1000"/>
	<outline>
		<contour>
			<point x="655" y="577" type="line"/>
			<point x="748" y="577" type="line"/>
			<point x="748" y="549" type="line"/>
			<point x="655" y="549" type="line"/>
		</contour>
		<contour>
			<point x="451" y="577" type="line"/>
			<point x="541" y="577" type="line"/>
			<point x="541" y="549" type="line"/>
			<point x="451" y="549" type="line"/>
		</contour>
		<contour>
			<point x="248" y="577" type="line"/>
			<point x="337" y="577" type="line"/>
			<point x="337" y="549" type="line"/>
			<point x="248" y="549" type="line"/>
		</contour>
		<contour>
			<point x="120" y="671" type="line"/>
			<point x="120" y="456" type="line"/>
			<point x="883" y="456" type="line"/>
			<point x="883" y="671" type="line"/>
		</contour>
		<contour>
			<point x="51" y="805" type="line"/>
			<point x="51" y="697" type="line"/>
			<point x="952" y="697" type="line"/>
			<point x="952" y="805" type="line"/>
		</contour>
		<contour>
			<point x="261" y="855" type="line"/>
			<point x="261" y="652" type="line"/>
			<point x="405" y="652" type="line"/>
			<point x="405" y="855" type="line"/>
		</contour>
		<contour>
			<point x="592" y="855" type="line"/>
			<point x="592" y="652" type="line"/>
			<point x="737" y="652" type="line"/>
			<point x="737" y="855" type="line"/>
		</contour>
		<contour>
			<point x="245" y="432" type="line"/>
			<point x="245" y="324" type="line"/>
			<point x="822" y="324" type="line"/>
			<point x="822" y="432" type="line"/>
		</contour>
		<contour>
			<point x="161" y="301" type="line"/>
			<point x="161" y="85" type="line"/>
			<point x="285" y="85" type="line"/>
			<point x="285" y="301" type="line"/>
		</contour>
		<contour>
			<point x="231" y="301" type="line"/>
			<point x="231" y="217" type="line"/>
			<point x="535" y="217" type="line"/>
			<point x="535" y="188" type="line"/>
			<point x="231" y="188" type="line"/>
			<point x="231" y="104" type="line"/>
			<point x="667" y="104" type="line"/>
			<point x="667" y="301" type="line"/>
		</contour>
		<contour>
			<point x="340" y="345" type="line"/>
			<point x="340" y="-15" type="line"/>
			<point x="474" y="-15" type="line"/>
			<point x="474" y="345" type="line"/>
		</contour>
		<contour>
			<point x="94" y="51" type="curve"/>
			<point x="106" y="-65" type="line"/>
			<point x="246" y="-56"/>
			<point x="440" y="-43"/>
			<point x="623" y="-28" type="curve"/>
			<point x="625" y="72" type="line"/>
			<point x="430" y="63"/>
			<point x="225" y="55"/>
		</contour>
		<contour>
			<point x="764" y="432" type="line"/>
			<point x="764" y="406" type="line"/>
			<point x="756" y="144"/>
			<point x="745" y="52"/>
			<point x="730" y="30" type="curve"/>
			<point x="722" y="18"/>
			<point x="714" y="15"/>
			<point x="702" y="15" type="curve"/>
			<point x="688" y="14"/>
			<point x="669" y="15"/>
			<point x="645" y="18" type="curve"/>
			<point x="662" y="-13"/>
			<point x="675" y="-62"/>
			<point x="677" y="-95" type="curve"/>
			<point x="719" y="-97"/>
			<point x="757" y="-96"/>
			<point x="782" y="-91" type="curve"/>
			<point x="810" y="-85"/>
			<point x="835" y="-75"/>
			<point x="856" y="-44" type="curve"/>
			<point x="882" y="-8"/>
			<point x="895" y="97"/>
			<point x="906" y="379" type="curve"/>
			<point x="906" y="395"/>
			<point x="907" y="432"/>
			<point x="907" y="432" type="curve"/>
		</contour>
		<contour>
			<point x="276" y="520" type="line"/>
			<point x="222" y="428"/>
			<point x="123" y="342"/>
			<point x="20" y="291" type="curve"/>
			<point x="50" y="268"/>
			<point x="101" y="219"/>
			<point x="124" y="193" type="curve"/>
			<point x="228" y="257"/>
			<point x="339" y="363"/>
			<point x="407" y="477" type="curve"/>
		</contour>
		<contour>
			<point x="498" y="83" type="line"/>
			<point x="539" y="38"/>
			<point x="587" y="-25"/>
			<point x="607" y="-65" type="curve"/>
			<point x="706" y="0" type="line"/>
			<point x="683" y="41"/>
			<point x="632" y="100"/>
			<point x="591" y="142" type="curve"/>
		</contour>
	</outline>
</glyph>
<glyph name="c22395" format="1">
	<advance width="1000"/>
	<outline>
		<contour>
			<point x="51" y="821" type="line"/>
			<point x="51" y="734" type="line"/>
			<point x="952" y="734" type="line"/>
			<point x="952" y="821" type="line"/>
		</contour>
		<contour>
			<point x="265" y="855" type="line"/>
			<point x="265" y="684" type="line"/>
			<point x="406" y="684" type="line"/>
			<point x="406" y="855" type="line"/>
		</contour>
		<contour>
			<point x="607" y="855" type="line"/>
			<point x="607" y="684" type="line"/>
			<point x="750" y="684" type="line"/>
			<point x="750" y="855" type="line"/>
		</contour>
		<contour>
			<point x="257" y="651" type="line"/>
			<point x="243" y="619"/>
			<point x="221" y="587"/>
			<point x="190" y="561" type="curve"/>
			<point x="210" y="552"/>
			<point x="244" y="532"/>
			<point x="259" y="520" type="curve"/>
			<point x="289" y="547"/>
			<point x="318" y="591"/>
			<point x="335" y="632" type="curve"/>
		</contour>
		<contour>
			<point x="544" y="532" type="line"/>
			<point x="544" y="453" type="line"/>
			<point x="815" y="453" type="line"/>
			<point x="815" y="532" type="line"/>
		</contour>
		<contour>
			<point x="259" y="608" type="line"/>
			<point x="259" y="550" type="line"/>
			<point x="485" y="550" type="line"/>
			<point x="485" y="608" type="line"/>
		</contour>
		<contour>
			<point x="212" y="530" type="line"/>
			<point x="212" y="471" type="line"/>
			<point x="496" y="471" type="line"/>
			<point x="496" y="530" type="line"/>
		</contour>
		<contour>
			<point x="613" y="699" type="line"/>
			<point x="613" y="612" type="line"/>
			<point x="785" y="612" type="line"/>
			<point x="785" y="699" type="line"/>
		</contour>
		<contour>
			<point x="805" y="532" type="line"/>
			<point x="805" y="521" type="line"/>
			<point x="763" y="439"/>
			<point x="652" y="397"/>
			<point x="514" y="382" type="curve"/>
			<point x="532" y="361"/>
			<point x="555" y="324"/>
			<point x="565" y="299" type="curve"/>
			<point x="729" y="326"/>
			<point x="854" y="383"/>
			<point x="911" y="511" type="curve"/>
			<point x="845" y="535" type="line"/>
			<point x="826" y="532" type="line"/>
		</contour>
		<contour>
			<point x="659" y="456" type="curve"/>
			<point x="565" y="432" type="line"/>
			<point x="629" y="352"/>
			<point x="741" y="309"/>
			<point x="894" y="295" type="curve"/>
			<point x="907" y="323"/>
			<point x="934" y="364"/>
			<point x="957" y="386" type="curve"/>
			<point x="821" y="389"/>
			<point x="710" y="409"/>
		</contour>
		<contour>
			<point x="566" y="699" type="line"/>
			<point x="566" y="659" type="line"/>
			<point x="566" y="633"/>
			<point x="559" y="613"/>
			<point x="500" y="591" type="curve"/>
			<point x="521" y="576"/>
			<point x="563" y="531"/>
			<point x="577" y="510" type="curve"/>
			<point x="654" y="546"/>
			<point x="671" y="601"/>
			<point x="671" y="656" type="curve"/>
			<point x="671" y="699" type="line"/>
		</contour>
		<contour>
			<point x="731" y="699" type="line"/>
			<point x="731" y="653" type="line"/>
			<point x="731" y="601"/>
			<point x="737" y="580"/>
			<point x="753" y="564" type="curve"/>
			<point x="767" y="548"/>
			<point x="794" y="541"/>
			<point x="817" y="541" type="curve"/>
			<point x="830" y="541"/>
			<point x="845" y="541"/>
			<point x="859" y="541" type="curve"/>
			<point x="872" y="541"/>
			<point x="892" y="543"/>
			<point x="903" y="549" type="curve"/>
			<point x="918" y="554"/>
			<point x="929" y="564"/>
			<point x="937" y="576" type="curve"/>
			<point x="944" y="588"/>
			<point x="948" y="615"/>
			<point x="951" y="641" type="curve"/>
			<point x="925" y="650"/>
			<point x="889" y="667"/>
			<point x="872" y="683" type="curve"/>
			<point x="871" y="664"/>
			<point x="870" y="649"/>
			<point x="868" y="642" type="curve"/>
			<point x="866" y="635"/>
			<point x="864" y="631"/>
			<point x="861" y="630" type="curve"/>
			<point x="859" y="629"/>
			<point x="857" y="629"/>
			<point x="854" y="629" type="curve"/>
			<point x="851" y="629"/>
			<point x="848" y="629"/>
			<point x="845" y="629" type="curve"/>
			<point x="842" y="629"/>
			<point x="840" y="629"/>
			<point x="838" y="632" type="curve"/>
			<point x="837" y="636"/>
			<point x="837" y="643"/>
			<point x="837" y="655" type="curve"/>
			<point x="837" y="699" type="line"/>
		</contour>
		<contour>
			<point x="315" y="579" type="line"/>
			<point x="315" y="521" type="line"/>
			<point x="315" y="493"/>
			<point x="302" y="455"/>
			<point x="203" y="437" type="curve"/>
			<point x="221" y="422"/>
			<point x="245" y="397"/>
			<point x="256" y="378" type="curve"/>
			<point x="373" y="413"/>
			<point x="398" y="471"/>
			<point x="398" y="519" type="curve"/>
			<point x="398" y="579" type="line"/>
		</contour>
		<contour>
			<point x="341" y="445" type="line"/>
			<point x="375" y="425"/>
			<point x="419" y="395"/>
			<point x="441" y="375" type="curve"/>
			<point x="492" y="429" type="line"/>
			<point x="469" y="448"/>
			<point x="424" y="476"/>
			<point x="391" y="494" type="curve"/>
		</contour>
		<contour>
			<point x="505" y="701" type="line"/>
			<point x="85" y="701" type="line"/>
			<point x="85" y="326" type="line"/>
			<point x="514" y="326" type="line"/>
			<point x="514" y="403" type="line"/>
			<point x="192" y="403" type="line"/>
			<point x="192" y="624" type="line"/>
			<point x="505" y="624" type="line"/>
		</contour>
		<contour>
			<point x="65" y="304" type="line"/>
			<point x="65" y="206" type="line"/>
			<point x="394" y="206" type="line"/>
			<point x="394" y="304" type="line"/>
		</contour>
		<contour>
			<point x="345" y="304" type="line"/>
			<point x="345" y="20" type="line"/>
			<point x="345" y="10"/>
			<point x="341" y="7"/>
			<point x="330" y="7" type="curve"/>
			<point x="320" y="6"/>
			<point x="284" y="6"/>
			<point x="257" y="8" type="curve"/>
			<point x="271" y="-21"/>
			<point x="286" y="-63"/>
			<point x="292" y="-95" type="curve"/>
			<point x="350" y="-95"/>
			<point x="397" y="-95"/>
			<point x="432" y="-79" type="curve"/>
			<point x="468" y="-62"/>
			<point x="478" y="-35"/>
			<point x="478" y="19" type="curve"/>
			<point x="478" y="304" type="line"/>
		</contour>
		<contour>
			<point x="207" y="232" type="line"/>
			<point x="170" y="196"/>
			<point x="105" y="162"/>
			<point x="43" y="139" type="curve"/>
			<point x="65" y="121"/>
			<point x="102" y="82"/>
			<point x="119" y="62" type="curve"/>
			<point x="184" y="93"/>
			<point x="260" y="145"/>
			<point x="307" y="198" type="curve"/>
		</contour>
		<contour>
			<point x="257" y="131" type="line"/>
			<point x="207" y="80"/>
			<point x="118" y="34"/>
			<point x="33" y="5" type="curve"/>
			<point x="56" y="-13"/>
			<point x="94" y="-54"/>
			<point x="110" y="-74" type="curve"/>
			<point x="196" y="-36"/>
			<point x="296" y="27"/>
			<point x="358" y="95" type="curve"/>
		</contour>
		<contour>
			<point x="499" y="304" type="line"/>
			<point x="499" y="206" type="line"/>
			<point x="837" y="206" type="line"/>
			<point x="837" y="304" type="line"/>
		</contour>
		<contour>
			<point x="782" y="304" type="line"/>
			<point x="782" y="21" type="line"/>
			<point x="782" y="10"/>
			<point x="777" y="7"/>
			<point x="765" y="7" type="curve"/>
			<point x="754" y="6"/>
			<point x="709" y="6"/>
			<point x="678" y="8" type="curve"/>
			<point x="692" y="-21"/>
			<point x="708" y="-63"/>
			<point x="713" y="-95" type="curve"/>
			<point x="778" y="-96"/>
			<point x="828" y="-95"/>
			<point x="865" y="-79" type="curve"/>
			<point x="903" y="-62"/>
			<point x="915" y="-35"/>
			<point x="915" y="20" type="curve"/>
			<point x="915" y="304" type="line"/>
		</contour>
		<contour>
			<point x="630" y="232" type="line"/>
			<point x="594" y="194"/>
			<point x="531" y="159"/>
			<point x="469" y="135" type="curve"/>
			<point x="492" y="117"/>
			<point x="530" y="78"/>
			<point x="546" y="58" type="curve"/>
			<point x="611" y="90"/>
			<point x="685" y="144"/>
			<point x="731" y="198" type="curve"/>
		</contour>
		<contour>
			<point x="698" y="141" type="line"/>
			<point x="648" y="89"/>
			<point x="559" y="41"/>
			<point x="474" y="11" type="curve"/>
			<point x="497" y="-7"/>
			<point x="535" y="-48"/>
			<point x="551" y="-69" type="curve"/>
			<point x="638" y="-30"/>
			<point x="738" y="35"/>
			<point x="799" y="105" type="curve"/>
		</contour>
	</outline>
</glyph>
<glyph name="c2663" format="1">
	<advance width="1000"/>
	<outline>
		<contour>
			<point x="494" y="40" type="line"/>
			<point x="494" y="-76" type="line"/>
			<point x="976" y="-76" type="line"/>
			<point x="976" y="40" type="line"/>
		</contour>
		<contour>
			<point x="526" y="212" type="line"/>
			<point x="526" y="102" type="line"/>
			<point x="936" y="102" type="line"/>
			<point x="936" y="212" type="line"/>
		</contour>
		<contour>
			<point x="666" y="454" type="line"/>
			<point x="666" y="22" type="line"/>
			<point x="794" y="22" type="line"/>
			<point x="794" y="454" type="line"/>
		</contour>
		<contour>
			<point x="642" y="581" type="line"/>
			<point x="809" y="581" type="line"/>
			<point x="809" y="547" type="line"/>
			<point x="642" y="547" type="line"/>
		</contour>
		<contour>
			<point x="642" y="711" type="line"/>
			<point x="809" y="711" type="line"/>
			<point x="809" y="677" type="line"/>
			<point x="642" y="677" type="line"/>
		</contour>
		<contour>
			<point x="518" y="818" type="line"/>
			<point x="518" y="440" type="line"/>
			<point x="939" y="440" type="line"/>
			<point x="939" y="818" type="line"/>
		</contour>
		<contour>
			<point x="536" y="440" type="line"/>
			<point x="518" y="376"/>
			<point x="484" y="313"/>
			<point x="437" y="271" type="curve"/>
			<point x="462" y="258"/>
			<point x="507" y="229"/>
			<point x="528" y="212" type="curve"/>
			<point x="576" y="260"/>
			<point x="619" y="337"/>
			<point x="642" y="417" type="curve"/>
		</contour>
		<contour>
			<point x="586" y="377" type="line"/>
			<point x="530" y="266" type="line"/>
			<point x="951" y="266" type="line"/>
			<point x="951" y="377" type="line"/>
		</contour>
		<contour>
			<point x="52" y="629" type="line"/>
			<point x="52" y="-87" type="line"/>
			<point x="159" y="-87" type="line"/>
			<point x="159" y="510" type="line"/>
			<point x="364" y="510" type="line"/>
			<point x="364" y="-73" type="line"/>
			<point x="477" y="-73" type="line"/>
			<point x="477" y="629" type="line"/>
		</contour>
		<contour>
			<point x="100" y="227" type="line"/>
			<point x="100" y="119" type="line"/>
			<point x="425" y="119" type="line"/>
			<point x="425" y="227" type="line"/>
		</contour>
		<contour>
			<point x="100" y="80" type="line"/>
			<point x="100" y="-31" type="line"/>
			<point x="425" y="-31" type="line"/>
			<point x="425" y="80" type="line"/>
		</contour>
		<contour>
			<point x="45" y="819" type="line"/>
			<point x="45" y="700" type="line"/>
			<point x="478" y="700" type="line"/>
			<point x="478" y="819" type="line"/>
		</contour>
		<contour>
			<point x="157" y="780" type="line"/>
			<point x="157" y="523" type="line"/>
			<point x="249" y="523" type="line"/>
			<point x="249" y="780" type="line"/>
		</contour>
		<contour>
			<point x="275" y="780" type="line"/>
			<point x="275" y="523" type="line"/>
			<point x="369" y="523" type="line"/>
			<point x="369" y="780" type="line"/>
		</contour>
		<contour>
			<point x="184" y="534" type="line"/>
			<point x="184" y="438" type="line"/>
			<point x="184" y="397"/>
			<point x="182" y="351"/>
			<point x="151" y="312" type="curve"/>
			<point x="165" y="304"/>
			<point x="193" y="281"/>
			<point x="204" y="268" type="curve"/>
			<point x="243" y="314"/>
			<point x="250" y="383"/>
			<point x="250" y="436" type="curve"/>
			<point x="250" y="534" type="line"/>
		</contour>
		<contour>
			<point x="274" y="534" type="line"/>
			<point x="274" y="393" type="line"/>
			<point x="274" y="327"/>
			<point x="287" y="310"/>
			<point x="336" y="310" type="curve"/>
			<point x="345" y="310"/>
			<point x="353" y="310"/>
			<point x="362" y="310" type="curve"/>
			<point x="396" y="310"/>
			<point x="416" y="323"/>
			<point x="425" y="357" type="curve"/>
			<point x="404" y="362"/>
			<point x="377" y="372"/>
			<point x="365" y="384" type="curve"/>
			<point x="363" y="381"/>
			<point x="361" y="380"/>
			<point x="351" y="380" type="curve"/>
			<point x="349" y="380"/>
			<point x="348" y="380"/>
			<point x="346" y="380" type="curve"/>
			<point x="341" y="380"/>
			<point x="340" y="381"/>
			<point x="340" y="395" type="curve"/>
			<point x="340" y="534" type="line"/>
		</contour>
	</outline>
</glyph>
<glyph name="c3452" format="1">
	<advance width="1000"/>
	<outline>
		<contour>
			<point x="407" y="381" type="line"/>
			<point x="407" y="266" type="line"/>
			<point x="795" y="266" type="line"/>
			<point x="795" y="381" type="line"/>
		</contour>
		<contour>
			<point x="407" y="594" type="line"/>
			<point x="407" y="474" type="line"/>
			<point x="817" y="474" type="line"/>
			<point x="817" y="594" type="line"/>
		</contour>
		<contour>
			<point x="573" y="661" type="line"/>
			<point x="573" y="341" type="line"/>
			<point x="702" y="341" type="line"/>
			<point x="702" y="661" type="line"/>
		</contour>
		<contour>
			<point x="761" y="381" type="line"/>
			<point x="761" y="362" type="line"/>
			<point x="720" y="177"/>
			<point x="591" y="65"/>
			<point x="398" y="23" type="curve"/>
			<point x="423" y="-5"/>
			<point x="454" y="-60"/>
			<point x="468" y="-95" type="curve"/>
			<point x="694" y="-29"/>
			<point x="841" y="99"/>
			<point x="898" y="358" type="curve"/>
			<point x="811" y="385" type="line"/>
			<point x="787" y="381" type="line"/>
		</contour>
		<contour>
			<point x="581" y="305" type="curve"/>
			<point x="459" y="279" type="line"/>
			<point x="532" y="77"/>
			<point x="649" y="-43"/>
			<point x="876" y="-95" type="curve"/>
			<point x="894" y="-57"/>
			<point x="931" y="-1"/>
			<point x="961" y="27" type="curve"/>
			<point x="756" y="61"/>
			<point x="637" y="156"/>
		</contour>
		<contour>
			<point x="345" y="594" type="line"/>
			<point x="345" y="394" type="line"/>
			<point x="345" y="271"/>
			<point x="337" y="97"/>
			<point x="241" y="-23" type="curve"/>
			<point x="271" y="-37"/>
			<point x="327" y="-77"/>
			<point x="350" y="-100" type="curve"/>
			<point x="455" y="33"/>
			<point x="474" y="247"/>
			<point x="474" y="393" type="curve"/>
			<point x="474" y="594" type="line"/>
		</contour>
		<contour>
			<point x="806" y="594" type="line"/>
			<point x="806" y="578" type="line"/>
			<point x="798" y="524"/>
			<point x="781" y="455"/>
			<point x="768" y="413" type="curve"/>
			<point x="888" y="395" type="line"/>
			<point x="908" y="442"/>
			<point x="931" y="515"/>
			<point x="946" y="582" type="curve"/>
			<point x="846" y="597" type="line"/>
			<point x="825" y="594" type="line"/>
		</contour>
		<contour>
			<point x="234" y="779" type="line"/>
			<point x="234" y="658" type="line"/>
			<point x="959" y="658" type="line"/>
			<point x="959" y="779" type="line"/>
		</contour>
		<contour>
			<point x="165" y="779" type="line"/>
			<point x="165" y="455" type="line"/>
			<point x="165" y="312"/>
			<point x="156" y="124"/>
			<point x="44" y="-1" type="curve"/>
			<point x="71" y="-18"/>
			<point x="125" y="-70"/>
			<point x="145" y="-97" type="curve"/>
			<point x="275" y="45"/>
			<point x="298" y="290"/>
			<point x="298" y="455" type="curve"/>
			<point x="298" y="779" type="line"/>
		</contour>
		<contour>
			<point x="470" y="855" type="line"/>
			<point x="470" y="702" type="line"/>
			<point x="624" y="702" type="line"/>
			<point x="624" y="855" type="line"/>
		</contour>
		<contour>
			<point x="20" y="639" type="line"/>
			<point x="44" y="573"/>
			<point x="65" y="487"/>
			<point x="69" y="434" type="curve"/>
			<point x="179" y="484" type="line"/>
			<point x="173" y="536"/>
			<point x="149" y="618"/>
			<point x="122" y="682" type="curve"/>
		</contour>
		<contour>
			<point x="13" y="305" type="curve"/>
			<point x="52" y="173" type="line"/>
			<point x="111" y="207"/>
			<point x="173" y="244"/>
			<point x="231" y="282" type="curve"/>
			<point x="198" y="391" type="line"/>
			<point x="128" y="357"/>
			<point x="61" y="324"/>
		</contour>
	</outline>
</glyph>
<glyph name="c3555" format="1">
	<advance width="1000"/>
	<outline>
		<contour>
			<point x="211" y="859" type="line"/>
			<point x="178" y="803"/>
			<point x="121" y="739"/>
			<point x="42" y="691" type="curve"/>
			<point x="75" y="674"/>
			<point x="124" y="636"/>
			<point x="148" y="607" type="curve"/>
			<point x="235" y="673"/>
			<point x="296" y="746"/>
			<point x="349" y="832" type="curve"/>
		</contour>
		<contour>
			<point x="247" y="770" type="line"/>
			<point x="135" y="658" type="line"/>
			<point x="905" y="658" type="line"/>
			<point x="905" y="770" type="line"/>
		</contour>
		<contour>
			<point x="249" y="282" type="line"/>
			<point x="156" y="189" type="line"/>
			<point x="421" y="189" type="line"/>
			<point x="421" y="282" type="line"/>
		</contour>
		<contour>
			<point x="55" y="606" type="line"/>
			<point x="55" y="492" type="line"/>
			<point x="947" y="492" type="line"/>
			<point x="947" y="606" type="line"/>
		</contour>
		<contour>
			<point x="73" y="445" type="line"/>
			<point x="73" y="333" type="line"/>
			<point x="938" y="333" type="line"/>
			<point x="938" y="445" type="line"/>
		</contour>
		<contour>
			<point x="201" y="730" type="line"/>
			<point x="201" y="392" type="line"/>
			<point x="332" y="392" type="line"/>
			<point x="332" y="730" type="line"/>
		</contour>
		<contour>
			<point x="369" y="730" type="line"/>
			<point x="369" y="392" type="line"/>
			<point x="487" y="392" type="line"/>
			<point x="487" y="730" type="line"/>
		</contour>
		<contour>
			<point x="525" y="730" type="line"/>
			<point x="525" y="392" type="line"/>
			<point x="643" y="392" type="line"/>
			<point x="643" y="730" type="line"/>
		</contour>
		<contour>
			<point x="681" y="730" type="line"/>
			<point x="681" y="392" type="line"/>
			<point x="814" y="392" type="line"/>
			<point x="814" y="730" type="line"/>
		</contour>
		<contour>
			<point x="235" y="372" type="line"/>
			<point x="193" y="295"/>
			<point x="111" y="228"/>
			<point x="22" y="188" type="curve"/>
			<point x="47" y="168"/>
			<point x="88" y="124"/>
			<point x="106" y="101" type="curve"/>
			<point x="201" y="154"/>
			<point x="295" y="240"/>
			<point x="349" y="340" type="curve"/>
		</contour>
		<contour>
			<point x="380" y="282" type="line"/>
			<point x="380" y="264" type="line"/>
			<point x="335" y="126"/>
			<point x="212" y="43"/>
			<point x="54" y="5" type="curve"/>
			<point x="78" y="-16"/>
			<point x="117" y="-68"/>
			<point x="132" y="-97" type="curve"/>
			<point x="301" y="-45"/>
			<point x="441" y="61"/>
			<point x="503" y="249" type="curve"/>
			<point x="426" y="285" type="line"/>
			<point x="405" y="282" type="line"/>
		</contour>
		<contour>
			<point x="139" y="136" type="line"/>
			<point x="171" y="110"/>
			<point x="211" y="72"/>
			<point x="228" y="47" type="curve"/>
			<point x="324" y="110" type="line"/>
			<point x="304" y="135"/>
			<point x="262" y="171"/>
			<point x="230" y="194" type="curve"/>
		</contour>
		<contour>
			<point x="495" y="288" type="line"/>
			<point x="495" y="178" type="line"/>
			<point x="932" y="178" type="line"/>
			<point x="932" y="288" type="line"/>
		</contour>
		<contour>
			<point x="442" y="113" type="line"/>
			<point x="442" y="6" type="line"/>
			<point x="956" y="6" type="line"/>
			<point x="956" y="113" type="line"/>
		</contour>
		<contour>
			<point x="688" y="343" type="line"/>
			<point x="688" y="-94" type="line"/>
			<point x="825" y="-94" type="line"/>
			<point x="825" y="343" type="line"/>
		</contour>
		<contour>
			<point x="529" y="240" type="line"/>
			<point x="529" y="55" type="line"/>
			<point x="647" y="55" type="line"/>
			<point x="647" y="240" type="line"/>
		</contour>
	</outline>
</glyph>
<glyph name="c3758" format="1">
	<advance width="1000"/>
	<outline>
		<contour>
			<point x="92" y="202" type="line"/>
			<point x="92" y="108" type="line"/>
			<point x="768" y="108" type="line"/>
			<point x="768" y="202" type="line"/>
		</contour>
		<contour>
			<point x="279" y="518" type="line"/>
			<point x="707" y="518" type="line"/>
			<point x="707" y="492" type="line"/>
			<point x="279" y="492" type="line"/>
		</contour>
		<contour>
			<point x="279" y="612" type="line"/>
			<point x="707" y="612" type="line"/>
			<point x="707" y="586" type="line"/>
			<point x="279" y="586" type="line"/>
		</contour>
		<contour>
			<point x="148" y="684" type="line"/>
			<point x="148" y="420" type="line"/>
			<point x="845" y="420" type="line"/>
			<point x="845" y="684" type="line"/>
		</contour>
		<contour>
			<point x="677" y="330" type="line"/>
			<point x="771" y="330" type="line"/>
			<point x="771" y="293" type="line"/>
			<point x="677" y="293" type="line"/>
		</contour>
		<contour>
			<point x="453" y="330" type="line"/>
			<point x="545" y="330" type="line"/>
			<point x="545" y="293" type="line"/>
			<point x="453" y="293" type="line"/>
		</contour>
		<contour>
			<point x="230" y="330" type="line"/>
			<point x="321" y="330" type="line"/>
			<point x="321" y="293" type="line"/>
			<point x="230" y="293" type="line"/>
		</contour>
		<contour>
			<point x="95" y="395" type="line"/>
			<point x="95" y="228" type="line"/>
			<point x="913" y="228" type="line"/>
			<point x="913" y="395" type="line"/>
		</contour>
		<contour>
			<point x="731" y="202" type="line"/>
			<point x="731" y="187" type="line"/>
			<point x="627" y="57"/>
			<point x="351" y="21"/>
			<point x="43" y="18" type="curve"/>
			<point x="62" y="-12"/>
			<point x="81" y="-63"/>
			<point x="88" y="-96" type="curve"/>
			<point x="421" y="-82"/>
			<point x="720" y="-33"/>
			<point x="863" y="158" type="curve"/>
			<point x="781" y="208" type="line"/>
			<point x="758" y="202" type="line"/>
		</contour>
		<contour>
			<point x="334" y="138" type="curve"/>
			<point x="229" y="90" type="line"/>
			<point x="382" y="-35"/>
			<point x="625" y="-84"/>
			<point x="908" y="-97" type="curve"/>
			<point x="923" y="-65"/>
			<point x="953" y="-14"/>
			<point x="978" y="14" type="curve"/>
			<point x="703" y="19"/>
			<point x="454" y="52"/>
		</contour>
		<contour>
			<point x="56" y="820" type="line"/>
			<point x="56" y="711" type="line"/>
			<point x="943" y="711" type="line"/>
			<point x="943" y="820" type="line"/>
		</contour>
		<contour>
			<point x="261" y="855" type="line"/>
			<point x="261" y="648" type="line"/>
			<point x="405" y="648" type="line"/>
			<point x="405" y="855" type="line"/>
		</contour>
		<contour>
			<point x="592" y="855" type="line"/>
			<point x="592" y="648" type="line"/>
			<point x="737" y="648" type="line"/>
			<point x="737" y="855" type="line"/>
		</contour>
	</outline>
</glyph>
<glyph name="c6447" format="1">
	<advance width="1000"/>
	<outline>
		<contour>
			<point x="51" y="813" type="line"/>
			<point x="51" y="715" type="line"/>
			<point x="952" y="715" type="line"/>
			<point x="952" y="813" type="line"/>
		</contour>
		<contour>
			<point x="64" y="359" type="line"/>
			<point x="64" y="277" type="line"/>
			<point x="942" y="277" type="line"/>
			<point x="942" y="359" type="line"/>
		</contour>
		<contour>
			<point x="64" y="683" type="line"/>
			<point x="64" y="604" type="line"/>
			<point x="942" y="604" type="line"/>
			<point x="942" y="683" type="line"/>
		</contour>
		<contour>
			<point x="40" y="22" type="line"/>
			<point x="40" y="-66" type="line"/>
			<point x="959" y="-66" type="line"/>
			<point x="959" y="22" type="line"/>
		</contour>
		<contour>
			<point x="264" y="855" type="line"/>
			<point x="264" y="679" type="line"/>
			<point x="405" y="679" type="line"/>
			<point x="405" y="855" type="line"/>
		</contour>
		<contour>
			<point x="592" y="855" type="line"/>
			<point x="592" y="679" type="line"/>
			<point x="735" y="679" type="line"/>
			<point x="735" y="855" type="line"/>
		</contour>
		<contour>
			<point x="432" y="565" type="line"/>
			<point x="432" y="398" type="line"/>
			<point x="563" y="398" type="line"/>
			<point x="563" y="565" type="line"/>
		</contour>
		<contour>
			<point x="291" y="457" type="line"/>
			<point x="706" y="457" type="line"/>
			<point x="706" y="434" type="line"/>
			<point x="291" y="434" type="line"/>
		</contour>
		<contour>
			<point x="291" y="530" type="line"/>
			<point x="706" y="530" type="line"/>
			<point x="706" y="508" type="line"/>
			<point x="291" y="508" type="line"/>
		</contour>
		<contour>
			<point x="157" y="584" type="line"/>
			<point x="157" y="380" type="line"/>
			<point x="846" y="380" type="line"/>
			<point x="846" y="584" type="line"/>
		</contour>
		<contour>
			<point x="432" y="233" type="line"/>
			<point x="432" y="57" type="line"/>
			<point x="563" y="57" type="line"/>
			<point x="563" y="233" type="line"/>
		</contour>
		<contour>
			<point x="281" y="125" type="line"/>
			<point x="716" y="125" type="line"/>
			<point x="716" y="101" type="line"/>
			<point x="281" y="101" type="line"/>
		</contour>
		<contour>
			<point x="281" y="201" type="line"/>
			<point x="716" y="201" type="line"/>
			<point x="716" y="178" type="line"/>
			<point x="281" y="178" type="line"/>
		</contour>
		<contour>
			<point x="147" y="256" type="line"/>
			<point x="147" y="46" type="line"/>
			<point x="856" y="46" type="line"/>
			<point x="856" y="256" type="line"/>
		</contour>
	</outline>
</glyph>
<glyph name="c6449" format="1">
	<advance width="1000"/>
	<outline>
		<contour>
			<point x="50" y="796" type="line"/>
			<point x="50" y="680" type="line"/>
			<point x="951" y="680" type="line"/>
			<point x="951" y="796" type="line"/>
		</contour>
		<contour>
			<point x="151" y="309" type="line"/>
			<point x="151" y="219" type="line"/>
			<point x="858" y="219" type="line"/>
			<point x="858" y="309" type="line"/>
		</contour>
		<contour>
			<point x="261" y="855" type="line"/>
			<point x="261" y="648" type="line"/>
			<point x="405" y="648" type="line"/>
			<point x="405" y="855" type="line"/>
		</contour>
		<contour>
			<point x="592" y="855" type="line"/>
			<point x="592" y="648" type="line"/>
			<point x="737" y="648" type="line"/>
			<point x="737" y="855" type="line"/>
		</contour>
		<contour>
			<point x="652" y="564" type="line"/>
			<point x="733" y="564" type="line"/>
			<point x="733" y="536" type="line"/>
			<point x="652" y="536" type="line"/>
		</contour>
		<contour>
			<point x="460" y="564" type="line"/>
			<point x="538" y="564" type="line"/>
			<point x="538" y="536" type="line"/>
			<point x="460" y="536" type="line"/>
		</contour>
		<contour>
			<point x="268" y="564" type="line"/>
			<point x="346" y="564" type="line"/>
			<point x="346" y="536" type="line"/>
			<point x="268" y="536" type="line"/>
		</contour>
		<contour>
			<point x="140" y="654" type="line"/>
			<point x="140" y="446" type="line"/>
			<point x="868" y="446" type="line"/>
			<point x="868" y="654" type="line"/>
		</contour>
		<contour>
			<point x="61" y="425" type="line"/>
			<point x="61" y="253" type="line"/>
			<point x="190" y="253" type="line"/>
			<point x="190" y="330" type="line"/>
			<point x="808" y="330" type="line"/>
			<point x="808" y="253" type="line"/>
			<point x="944" y="253" type="line"/>
			<point x="944" y="425" type="line"/>
		</contour>
		<contour>
			<point x="271" y="252" type="line"/>
			<point x="232" y="205"/>
			<point x="160" y="164"/>
			<point x="52" y="135" type="curve"/>
			<point x="74" y="119"/>
			<point x="105" y="80"/>
			<point x="119" y="55" type="curve"/>
			<point x="243" y="99"/>
			<point x="324" y="153"/>
			<point x="381" y="231" type="curve"/>
		</contour>
		<contour>
			<point x="405" y="189" type="line"/>
			<point x="405" y="176" type="line"/>
			<point x="357" y="71"/>
			<point x="222" y="19"/>
			<point x="52" y="1" type="curve"/>
			<point x="72" y="-23"/>
			<point x="96" y="-68"/>
			<point x="105" y="-97" type="curve"/>
			<point x="302" y="-65"/>
			<point x="454" y="5"/>
			<point x="521" y="166" type="curve"/>
			<point x="449" y="192" type="line"/>
			<point x="428" y="189" type="line"/>
		</contour>
		<contour>
			<point x="180" y="56" type="line"/>
			<point x="205" y="40"/>
			<point x="238" y="11"/>
			<point x="255" y="-9" type="curve"/>
			<point x="337" y="45" type="line"/>
			<point x="319" y="63"/>
			<point x="287" y="88"/>
			<point x="259" y="103" type="curve"/>
		</contour>
		<contour>
			<point x="269" y="189" type="line"/>
			<point x="192" y="112" type="line"/>
			<point x="445" y="112" type="line"/>
			<point x="445" y="189" type="line"/>
		</contour>
		<contour>
			<point x="534" y="239" type="line"/>
			<point x="534" y="53" type="line"/>
			<point x="534" y="-53"/>
			<point x="564" y="-86"/>
			<point x="690" y="-86" type="curve"/>
			<point x="715" y="-86"/>
			<point x="796" y="-86"/>
			<point x="823" y="-86" type="curve"/>
			<point x="913" y="-86"/>
			<point x="947" y="-58"/>
			<point x="961" y="41" type="curve"/>
			<point x="926" y="48"/>
			<point x="875" y="66"/>
			<point x="849" y="83" type="curve"/>
			<point x="845" y="30"/>
			<point x="838" y="20"/>
			<point x="809" y="20" type="curve"/>
			<point x="789" y="20"/>
			<point x="724" y="20"/>
			<point x="708" y="20" type="curve"/>
			<point x="671" y="20"/>
			<point x="665" y="24"/>
			<point x="665" y="54" type="curve"/>
			<point x="665" y="239" type="line"/>
		</contour>
		<contour>
			<point x="815" y="213" type="line"/>
			<point x="760" y="189"/>
			<point x="668" y="168"/>
			<point x="584" y="155" type="curve"/>
			<point x="597" y="132"/>
			<point x="612" y="92"/>
			<point x="618" y="68" type="curve"/>
			<point x="711" y="79"/>
			<point x="823" y="99"/>
			<point x="908" y="131" type="curve"/>
		</contour>
	</outline>
</glyph>
<glyph name="c6550" format="1">
	<advance width="1000"/>
	<outline>
		<contour>
			<point x="285" y="495" type="line"/>
			<point x="711" y="495" type="line"/>
			<point x="711" y="467" type="line"/>
			<point x="285" y="467" type="line"/>
		</contour>
		<contour>
			<point x="285" y="597" type="line"/>
			<point x="711" y="597" type="line"/>
			<point x="711" y="570" type="line"/>
			<point x="285" y="570" type="line"/>
		</contour>
		<contour>
			<point x="146" y="677" type="line"/>
			<point x="146" y="387" type="line"/>
			<point x="857" y="387" type="line"/>
			<point x="857" y="677" type="line"/>
		</contour>
		<contour>
			<point x="43" y="363" type="line"/>
			<point x="43" y="256" type="line"/>
			<point x="962" y="256" type="line"/>
			<point x="962" y="363" type="line"/>
		</contour>
		<contour>
			<point x="328" y="406" type="line"/>
			<point x="288" y="310"/>
			<point x="197" y="227"/>
			<point x="22" y="175" type="curve"/>
			<point x="48" y="154"/>
			<point x="83" y="104"/>
			<point x="97" y="73" type="curve"/>
			<point x="292" y="144"/>
			<point x="398" y="246"/>
			<point x="460" y="385" type="curve"/>
		</contour>
		<contour>
			<point x="713" y="320" type="curve"/>
			<point x="609" y="286" type="line"/>
			<point x="672" y="191"/>
			<point x="776" y="118"/>
			<point x="901" y="84" type="curve"/>
			<point x="919" y="117"/>
			<point x="956" y="167"/>
			<point x="984" y="192" type="curve"/>
			<point x="868" y="212"/>
			<point x="765" y="259"/>
		</contour>
		<contour>
			<point x="51" y="817" type="line"/>
			<point x="51" y="706" type="line"/>
			<point x="952" y="706" type="line"/>
			<point x="952" y="817" type="line"/>
		</contour>
		<contour>
			<point x="266" y="855" type="line"/>
			<point x="266" y="648" type="line"/>
			<point x="407" y="648" type="line"/>
			<point x="407" y="855" type="line"/>
		</contour>
		<contour>
			<point x="589" y="855" type="line"/>
			<point x="589" y="648" type="line"/>
			<point x="732" y="648" type="line"/>
			<point x="732" y="855" type="line"/>
		</contour>
		<contour>
			<point x="427" y="277" type="line"/>
			<point x="427" y="2" type="line"/>
			<point x="565" y="2" type="line"/>
			<point x="565" y="277" type="line"/>
		</contour>
		<contour>
			<point x="341" y="156" type="line"/>
			<point x="654" y="156" type="line"/>
			<point x="654" y="128" type="line"/>
			<point x="341" y="128" type="line"/>
		</contour>
		<contour>
			<point x="216" y="225" type="line"/>
			<point x="216" y="59" type="line"/>
			<point x="787" y="59" type="line"/>
			<point x="787" y="225" type="line"/>
		</contour>
		<contour>
			<point x="117" y="26" type="curve"/>
			<point x="119" y="-82" type="line"/>
			<point x="299" y="-80"/>
			<point x="566" y="-75"/>
			<point x="816" y="-69" type="curve"/>
			<point x="822" y="26" type="line"/>
			<point x="566" y="24"/>
			<point x="291" y="25"/>
		</contour>
		<contour>
			<point x="662" y="46" type="line"/>
			<point x="716" y="5"/>
			<point x="787" y="-60"/>
			<point x="823" y="-101" type="curve"/>
			<point x="937" y="-51" type="line"/>
			<point x="899" y="-13"/>
			<point x="829" y="47"/>
			<point x="771" y="88" type="curve"/>
		</contour>
	</outline>
</glyph>
<glyph name="c6821" format="1">
	<advance width="1000"/>
	<outline>
		<contour>
			<point x="286" y="277" type="line"/>
			<point x="719" y="277" type="line"/>
			<point x="719" y="246" type="line"/>
			<point x="286" y="246" type="line"/>
		</contour>
		<contour>
			<point x="146" y="356" type="line"/>
			<point x="146" y="168" type="line"/>
			<point x="869" y="168" type="line"/>
			<point x="869" y="356" type="line"/>
		</contour>
		<contour>
			<point x="428" y="227" type="line"/>
			<point x="428" y="-21" type="line"/>
			<point x="575" y="-53" type="line"/>
			<point x="575" y="227" type="line"/>
		</contour>
		<contour>
			<point x="502" y="137" type="line"/>
			<point x="502" y="55" type="line"/>
			<point x="872" y="55" type="line"/>
			<point x="872" y="137" type="line"/>
		</contour>
		<contour>
			<point x="168" y="775" type="line"/>
			<point x="168" y="680" type="line"/>
			<point x="952" y="680" type="line"/>
			<point x="952" y="775" type="line"/>
		</contour>
		<contour>
			<point x="100" y="775" type="line"/>
			<point x="100" y="659" type="line"/>
			<point x="100" y="585"/>
			<point x="93" y="490"/>
			<point x="17" y="419" type="curve"/>
			<point x="45" y="403"/>
			<point x="102" y="356"/>
			<point x="122" y="332" type="curve"/>
			<point x="212" y="417"/>
			<point x="231" y="554"/>
			<point x="231" y="657" type="curve"/>
			<point x="231" y="775" type="line"/>
		</contour>
		<contour>
			<point x="324" y="696" type="line"/>
			<point x="324" y="529" type="line"/>
			<point x="439" y="529" type="line"/>
			<point x="439" y="696" type="line"/>
		</contour>
		<contour>
			<point x="383" y="655" type="line"/>
			<point x="383" y="599" type="line"/>
			<point x="559" y="599" type="line"/>
			<point x="559" y="655" type="line"/>
		</contour>
		<contour>
			<point x="216" y="576" type="line"/>
			<point x="216" y="507" type="line"/>
			<point x="599" y="507" type="line"/>
			<point x="599" y="576" type="line"/>
		</contour>
		<contour>
			<point x="348" y="553" type="line"/>
			<point x="348" y="444" type="line"/>
			<point x="348" y="436"/>
			<point x="345" y="433"/>
			<point x="337" y="433" type="curve"/>
			<point x="330" y="433"/>
			<point x="310" y="433"/>
			<point x="293" y="434" type="curve"/>
			<point x="306" y="412"/>
			<point x="325" y="377"/>
			<point x="333" y="349" type="curve"/>
			<point x="372" y="349"/>
			<point x="404" y="349"/>
			<point x="433" y="363" type="curve"/>
			<point x="462" y="377"/>
			<point x="469" y="394"/>
			<point x="469" y="440" type="curve"/>
			<point x="469" y="553" type="line"/>
		</contour>
		<contour>
			<point x="249" y="504" type="line"/>
			<point x="236" y="470"/>
			<point x="212" y="436"/>
			<point x="181" y="410" type="curve"/>
			<point x="202" y="398"/>
			<point x="237" y="374"/>
			<point x="254" y="360" type="curve"/>
			<point x="287" y="390"/>
			<point x="318" y="437"/>
			<point x="336" y="483" type="curve"/>
		</contour>
		<contour>
			<point x="459" y="474" type="line"/>
			<point x="483" y="444"/>
			<point x="507" y="402"/>
			<point x="516" y="374" type="curve"/>
			<point x="595" y="404" type="line"/>
			<point x="585" y="432"/>
			<point x="559" y="473"/>
			<point x="534" y="502" type="curve"/>
		</contour>
		<contour>
			<point x="525" y="853" type="line"/>
			<point x="547" y="581"/>
			<point x="688" y="350"/>
			<point x="842" y="349" type="curve"/>
			<point x="925" y="349"/>
			<point x="966" y="375"/>
			<point x="984" y="507" type="curve"/>
			<point x="952" y="517"/>
			<point x="909" y="540"/>
			<point x="883" y="564" type="curve"/>
			<point x="878" y="498"/>
			<point x="870" y="473"/>
			<point x="850" y="473" type="curve"/>
			<point x="780" y="473"/>
			<point x="671" y="657"/>
			<point x="655" y="853" type="curve"/>
		</contour>
		<contour>
			<point x="777" y="675" type="line"/>
			<point x="735" y="579"/>
			<point x="653" y="493"/>
			<point x="559" y="441" type="curve"/>
			<point x="586" y="422"/>
			<point x="632" y="380"/>
			<point x="652" y="357" type="curve"/>
			<point x="748" y="421"/>
			<point x="841" y="526"/>
			<point x="895" y="643" type="curve"/>
		</contour>
		<contour>
			<point x="690" y="793" type="line"/>
			<point x="739" y="777"/>
			<point x="803" y="749"/>
			<point x="835" y="728" type="curve"/>
			<point x="898" y="802" type="line"/>
			<point x="863" y="823"/>
			<point x="798" y="848"/>
			<point x="750" y="860" type="curve"/>
		</contour>
		<contour>
			<point x="299" y="124" type="curve"/>
			<point x="203" y="91" type="line"/>
			<point x="280" y="-55"/>
			<point x="397" y="-82"/>
			<point x="612" y="-82" type="curve"/>
			<point x="846" y="-82" type="line"/>
			<point x="914" y="-82" type="line"/>
			<point x="919" y="-49"/>
			<point x="937" y="3"/>
			<point x="953" y="29" type="curve"/>
			<point x="881" y="26"/>
			<point x="672" y="26"/>
			<point x="618" y="26" type="curve"/>
			<point x="459" y="27"/>
			<point x="349" y="37"/>
		</contour>
		<contour>
			<point x="190" y="164" type="line"/>
			<point x="172" y="82"/>
			<point x="114" y="25"/>
			<point x="23" y="-9" type="curve"/>
			<point x="53" y="-30"/>
			<point x="106" y="-78"/>
			<point x="128" y="-103" type="curve"/>
			<point x="228" y="-53"/>
			<point x="300" y="28"/>
			<point x="330" y="148" type="curve"/>
		</contour>
	</outline>
</glyph>
<glyph name="c7225" format="1">
	<advance width="1000"/>
	<outline>
		<contour>
			<point x="415" y="225" type="line"/>
			<point x="415" y="109" type="line"/>
			<point x="965" y="109" type="line"/>
			<point x="965" y="225" type="line"/>
		</contour>
		<contour>
			<point x="432" y="413" type="line"/>
			<point x="432" y="299" type="line"/>
			<point x="950" y="299" type="line"/>
			<point x="950" y="413" type="line"/>
		</contour>
		<contour>
			<point x="472" y="828" type="line"/>
			<point x="472" y="740" type="line"/>
			<point x="569" y="740" type="line"/>
			<point x="569" y="701" type="line"/>
			<point x="472" y="701" type="line"/>
			<point x="472" y="612" type="line"/>
			<point x="671" y="612" type="line"/>
			<point x="671" y="828" type="line"/>
		</contour>
		<contour>
			<point x="525" y="485" type="line"/>
			<point x="525" y="197" type="line"/>
			<point x="649" y="197" type="line"/>
			<point x="649" y="485" type="line"/>
		</contour>
		<contour>
			<point x="729" y="485" type="line"/>
			<point x="729" y="192" type="line"/>
			<point x="855" y="192" type="line"/>
			<point x="855" y="485" type="line"/>
		</contour>
		<contour>
			<point x="424" y="828" type="line"/>
			<point x="424" y="589" type="line"/>
			<point x="424" y="494"/>
			<point x="446" y="466"/>
			<point x="528" y="466" type="curve"/>
			<point x="544" y="466"/>
			<point x="582" y="466"/>
			<point x="599" y="466" type="curve"/>
			<point x="659" y="466"/>
			<point x="687" y="491"/>
			<point x="699" y="578" type="curve"/>
			<point x="670" y="584"/>
			<point x="628" y="600"/>
			<point x="608" y="616" type="curve"/>
			<point x="606" y="569"/>
			<point x="602" y="562"/>
			<point x="587" y="562" type="curve"/>
			<point x="578" y="562"/>
			<point x="552" y="562"/>
			<point x="545" y="562" type="curve"/>
			<point x="529" y="562"/>
			<point x="526" y="565"/>
			<point x="526" y="591" type="curve"/>
			<point x="526" y="828" type="line"/>
		</contour>
		<contour>
			<point x="744" y="828" type="line"/>
			<point x="744" y="741" type="line"/>
			<point x="847" y="741" type="line"/>
			<point x="847" y="702" type="line"/>
			<point x="744" y="702" type="line"/>
			<point x="744" y="615" type="line"/>
			<point x="950" y="615" type="line"/>
			<point x="950" y="828" type="line"/>
		</contour>
		<contour>
			<point x="696" y="828" type="line"/>
			<point x="696" y="593" type="line"/>
			<point x="696" y="497"/>
			<point x="719" y="470"/>
			<point x="801" y="470" type="curve"/>
			<point x="818" y="470"/>
			<point x="857" y="470"/>
			<point x="874" y="470" type="curve"/>
			<point x="936" y="470"/>
			<point x="964" y="494"/>
			<point x="975" y="580" type="curve"/>
			<point x="946" y="587"/>
			<point x="904" y="603"/>
			<point x="884" y="618" type="curve"/>
			<point x="881" y="573"/>
			<point x="878" y="566"/>
			<point x="862" y="566" type="curve"/>
			<point x="853" y="566"/>
			<point x="826" y="566"/>
			<point x="819" y="566" type="curve"/>
			<point x="801" y="566"/>
			<point x="799" y="569"/>
			<point x="799" y="595" type="curve"/>
			<point x="799" y="828" type="line"/>
		</contour>
		<contour>
			<point x="712" y="38" type="line"/>
			<point x="773" y="2"/>
			<point x="852" y="-55"/>
			<point x="887" y="-93" type="curve"/>
			<point x="982" y="-5" type="line"/>
			<point x="941" y="33"/>
			<point x="860" y="84"/>
			<point x="800" y="117" type="curve"/>
		</contour>
		<contour>
			<point x="567" y="117" type="line"/>
			<point x="527" y="75"/>
			<point x="448" y="19"/>
			<point x="380" y="-10" type="curve"/>
			<point x="410" y="-32"/>
			<point x="450" y="-69"/>
			<point x="472" y="-93" type="curve"/>
			<point x="539" y="-61"/>
			<point x="624" y="-3"/>
			<point x="675" y="47" type="curve"/>
		</contour>
		<contour>
			<point x="75" y="559" type="line"/>
			<point x="75" y="-94" type="line"/>
			<point x="196" y="-94" type="line"/>
			<point x="196" y="559" type="line"/>
		</contour>
		<contour>
			<point x="147" y="442" type="line"/>
			<point x="147" y="360" type="line"/>
			<point x="355" y="360" type="line"/>
			<point x="355" y="442" type="line"/>
		</contour>
		<contour>
			<point x="167" y="681" type="line"/>
			<point x="167" y="587" type="line"/>
			<point x="334" y="587" type="line"/>
			<point x="334" y="681" type="line"/>
		</contour>
		<contour>
			<point x="145" y="215" type="line"/>
			<point x="145" y="109" type="line"/>
			<point x="398" y="109" type="line"/>
			<point x="398" y="215" type="line"/>
		</contour>
		<contour>
			<point x="147" y="83" type="line"/>
			<point x="147" y="-25" type="line"/>
			<point x="404" y="-25" type="line"/>
			<point x="404" y="83" type="line"/>
		</contour>
		<contour>
			<point x="153" y="559" type="line"/>
			<point x="153" y="468" type="line"/>
			<point x="283" y="468" type="line"/>
			<point x="283" y="330" type="line"/>
			<point x="153" y="330" type="line"/>
			<point x="153" y="239" type="line"/>
			<point x="402" y="239" type="line"/>
			<point x="402" y="559" type="line"/>
		</contour>
		<contour>
			<point x="168" y="855" type="line"/>
			<point x="139" y="782"/>
			<point x="87" y="695"/>
			<point x="12" y="628" type="curve"/>
			<point x="40" y="611"/>
			<point x="81" y="571"/>
			<point x="101" y="543" type="curve"/>
			<point x="189" y="629"/>
			<point x="244" y="725"/>
			<point x="280" y="794" type="curve"/>
			<point x="280" y="830" type="line"/>
			<point x="241" y="830" type="line"/>
			<point x="241" y="855" type="line"/>
		</contour>
		<contour>
			<point x="197" y="855" type="line"/>
			<point x="197" y="763" type="line"/>
			<point x="218" y="763" type="line"/>
			<point x="268" y="720"/>
			<point x="330" y="636"/>
			<point x="358" y="587" type="curve"/>
			<point x="445" y="686" type="line"/>
			<point x="413" y="737"/>
			<point x="344" y="806"/>
			<point x="288" y="855" type="curve"/>
		</contour>
	</outline>
</glyph>
<glyph name="c7253" format="1">
	<advance width="1000"/>
	<outline>
		<contour>
			<point x="58" y="822" type="line"/>
			<point x="58" y="730" type="line"/>
			<point x="941" y="730" type="line"/>
			<point x="941" y="822" type="line"/>
		</contour>
		<contour>
			<point x="264" y="855" type="line"/>
			<point x="264" y="675" type="line"/>
			<point x="405" y="675" type="line"/>
			<point x="405" y="855" type="line"/>
		</contour>
		<contour>
			<point x="592" y="855" type="line"/>
			<point x="592" y="675" type="line"/>
			<point x="735" y="675" type="line"/>
			<point x="735" y="855" type="line"/>
		</contour>
		<contour>
			<point x="285" y="551" type="line"/>
			<point x="709" y="551" type="line"/>
			<point x="709" y="528" type="line"/>
			<point x="285" y="528" type="line"/>
		</contour>
		<contour>
			<point x="285" y="638" type="line"/>
			<point x="709" y="638" type="line"/>
			<point x="709" y="615" type="line"/>
			<point x="285" y="615" type="line"/>
		</contour>
		<contour>
			<point x="153" y="705" type="line"/>
			<point x="153" y="461" type="line"/>
			<point x="848" y="461" type="line"/>
			<point x="848" y="705" type="line"/>
		</contour>
		<contour>
			<point x="41" y="437" type="line"/>
			<point x="41" y="347" type="line"/>
			<point x="960" y="347" type="line"/>
			<point x="960" y="437" type="line"/>
		</contour>
		<contour>
			<point x="296" y="240" type="line"/>
			<point x="296" y="191" type="line"/>
			<point x="765" y="191" type="line"/>
			<point x="765" y="240" type="line"/>
		</contour>
		<contour>
			<point x="296" y="169" type="line"/>
			<point x="296" y="120" type="line"/>
			<point x="778" y="120" type="line"/>
			<point x="778" y="169" type="line"/>
		</contour>
		<contour>
			<point x="204" y="98" type="line"/>
			<point x="204" y="29" type="line"/>
			<point x="826" y="29" type="line"/>
			<point x="826" y="98" type="line"/>
		</contour>
		<contour>
			<point x="315" y="492" type="line"/>
			<point x="277" y="392"/>
			<point x="189" y="304"/>
			<point x="17" y="248" type="curve"/>
			<point x="42" y="227"/>
			<point x="78" y="179"/>
			<point x="91" y="148" type="curve"/>
			<point x="283" y="223"/>
			<point x="386" y="330"/>
			<point x="445" y="472" type="curve"/>
		</contour>
		<contour>
			<point x="708" y="411" type="curve"/>
			<point x="604" y="377" type="line"/>
			<point x="669" y="277"/>
			<point x="776" y="199"/>
			<point x="905" y="163" type="curve"/>
			<point x="923" y="196"/>
			<point x="960" y="245"/>
			<point x="988" y="270" type="curve"/>
			<point x="868" y="293"/>
			<point x="762" y="344"/>
		</contour>
		<contour>
			<point x="442" y="306" type="line"/>
			<point x="442" y="63" type="line"/>
			<point x="570" y="63" type="line"/>
			<point x="570" y="306" type="line"/>
		</contour>
		<contour>
			<point x="780" y="98" type="line"/>
			<point x="780" y="86" type="line"/>
			<point x="775" y="34"/>
			<point x="767" y="9"/>
			<point x="758" y="0" type="curve"/>
			<point x="752" y="-7"/>
			<point x="746" y="-8"/>
			<point x="737" y="-8" type="curve"/>
			<point x="727" y="-8"/>
			<point x="711" y="-7"/>
			<point x="690" y="-5" type="curve"/>
			<point x="703" y="-29"/>
			<point x="714" y="-68"/>
			<point x="715" y="-96" type="curve"/>
			<point x="752" y="-97"/>
			<point x="785" y="-96"/>
			<point x="804" y="-94" type="curve"/>
			<point x="825" y="-92"/>
			<point x="846" y="-85"/>
			<point x="863" y="-68" type="curve"/>
			<point x="883" y="-49"/>
			<point x="894" y="-10"/>
			<point x="903" y="58" type="curve"/>
			<point x="905" y="73"/>
			<point x="907" y="98"/>
			<point x="907" y="98" type="curve"/>
		</contour>
		<contour>
			<point x="165" y="53" type="line"/>
			<point x="150" y="17"/>
			<point x="118" y="-22"/>
			<point x="79" y="-45" type="curve"/>
			<point x="180" y="-101" type="line"/>
			<point x="225" y="-72"/>
			<point x="251" y="-31"/>
			<point x="269" y="14" type="curve"/>
		</contour>
		<contour>
			<point x="283" y="13" type="line"/>
			<point x="292" y="-20"/>
			<point x="299" y="-65"/>
			<point x="298" y="-93" type="curve"/>
			<point x="405" y="-76" type="line"/>
			<point x="404" y="-49"/>
			<point x="395" y="-5"/>
			<point x="384" y="27" type="curve"/>
		</contour>
		<contour>
			<point x="417" y="11" type="line"/>
			<point x="439" y="-18"/>
			<point x="460" y="-59"/>
			<point x="468" y="-86" type="curve"/>
			<point x="565" y="-54" type="line"/>
			<point x="555" y="-27"/>
			<point x="533" y="11"/>
			<point x="509" y="37" type="curve"/>
		</contour>
		<contour>
			<point x="561" y="8" type="line"/>
			<point x="585" y="-13"/>
			<point x="612" y="-45"/>
			<point x="623" y="-66" type="curve"/>
			<point x="707" y="-24" type="line"/>
			<point x="694" y="-2"/>
			<point x="665" y="27"/>
			<point x="640" y="47" type="curve"/>
		</contour>
		<contour>
			<point x="315" y="324" type="line"/>
			<point x="252" y="261" type="line"/>
			<point x="689" y="261" type="line"/>
			<point x="689" y="324" type="line"/>
		</contour>
		<contour>
			<point x="204" y="280" type="line"/>
			<point x="204" y="65" type="line"/>
			<point x="340" y="65" type="line"/>
			<point x="340" y="326" type="line"/>
		</contour>
	</outline>
</glyph>
<glyph name="c7701" format="1">
	<advance width="1000"/>
	<outline>
		<contour>
			<point x="53" y="327" type="line"/>
			<point x="53" y="235" type="line"/>
			<point x="949" y="235" type="line"/>
			<point x="949" y="327" type="line"/>
		</contour>
		<contour>
			<point x="152" y="446" type="line"/>
			<point x="152" y="358" type="line"/>
			<point x="715" y="358" type="line"/>
			<point x="715" y="446" type="line"/>
		</contour>
		<contour>
			<point x="285" y="95" type="line"/>
			<point x="285" y="26" type="line"/>
			<point x="785" y="26" type="line"/>
			<point x="785" y="95" type="line"/>
		</contour>
		<contour>
			<point x="285" y="1" type="line"/>
			<point x="285" y="-80" type="line"/>
			<point x="785" y="-80" type="line"/>
			<point x="785" y="1" type="line"/>
		</contour>
		<contour>
			<point x="378" y="494" type="line"/>
			<point x="378" y="300" type="line"/>
			<point x="516" y="300" type="line"/>
			<point x="516" y="494" type="line"/>
		</contour>
		<contour>
			<point x="238" y="200" type="line"/>
			<point x="238" y="-95" type="line"/>
			<point x="374" y="-95" type="line"/>
			<point x="374" y="119" type="line"/>
			<point x="703" y="119" type="line"/>
			<point x="703" y="-95" type="line"/>
			<point x="846" y="-95" type="line"/>
			<point x="846" y="200" type="line"/>
		</contour>
		<contour>
			<point x="799" y="482" type="line"/>
			<point x="640" y="321"/>
			<point x="328" y="228"/>
			<point x="17" y="188" type="curve"/>
			<point x="35" y="163"/>
			<point x="63" y="110"/>
			<point x="74" y="83" type="curve"/>
			<point x="387" y="137"/>
			<point x="712" y="237"/>
			<point x="899" y="424" type="curve"/>
		</contour>
		<contour>
			<point x="633" y="221" type="line"/>
			<point x="662" y="201"/>
			<point x="697" y="172"/>
			<point x="714" y="152" type="curve"/>
			<point x="795" y="210" type="line"/>
			<point x="776" y="231"/>
			<point x="739" y="258"/>
			<point x="710" y="275" type="curve"/>
		</contour>
		<contour>
			<point x="659" y="591" type="line"/>
			<point x="751" y="591" type="line"/>
			<point x="751" y="560" type="line"/>
			<point x="659" y="560" type="line"/>
		</contour>
		<contour>
			<point x="455" y="591" type="line"/>
			<point x="545" y="591" type="line"/>
			<point x="545" y="560" type="line"/>
			<point x="455" y="560" type="line"/>
		</contour>
		<contour>
			<point x="253" y="591" type="line"/>
			<point x="341" y="591" type="line"/>
			<point x="341" y="560" type="line"/>
			<point x="253" y="560" type="line"/>
		</contour>
		<contour>
			<point x="125" y="675" type="line"/>
			<point x="125" y="476" type="line"/>
			<point x="886" y="476" type="line"/>
			<point x="886" y="675" type="line"/>
		</contour>
		<contour>
			<point x="55" y="809" type="line"/>
			<point x="55" y="702" type="line"/>
			<point x="947" y="702" type="line"/>
			<point x="947" y="809" type="line"/>
		</contour>
		<contour>
			<point x="261" y="855" type="line"/>
			<point x="261" y="648" type="line"/>
			<point x="405" y="648" type="line"/>
			<point x="405" y="855" type="line"/>
		</contour>
		<contour>
			<point x="592" y="855" type="line"/>
			<point x="592" y="648" type="line"/>
			<point x="737" y="648" type="line"/>
			<point x="737" y="855" type="line"/>
		</contour>
	</outline>
</glyph>
<glyph name="c7716" format="1">
	<advance width="1000"/>
	<outline>
		<contour>
			<point x="359" y="822" type="line"/>
			<point x="359" y="582" type="line"/>
			<point x="359" y="482"/>
			<point x="385" y="453"/>
			<point x="477" y="453" type="curve"/>
			<point x="496" y="453"/>
			<point x="540" y="453"/>
			<point x="560" y="453" type="curve"/>
			<point x="628" y="453"/>
			<point x="658" y="479"/>
			<point x="670" y="568" type="curve"/>
			<point x="639" y="575"/>
			<point x="593" y="592"/>
			<point x="571" y="608" type="curve"/>
			<point x="568" y="561"/>
			<point x="564" y="552"/>
			<point x="547" y="552" type="curve"/>
			<point x="537" y="552"/>
			<point x="505" y="552"/>
			<point x="497" y="552" type="curve"/>
			<point x="477" y="552"/>
			<point x="474" y="555"/>
			<point x="474" y="583" type="curve"/>
			<point x="474" y="822" type="line"/>
		</contour>
		<contour>
			<point x="410" y="822" type="line"/>
			<point x="410" y="734" type="line"/>
			<point x="528" y="734" type="line"/>
			<point x="528" y="692" type="line"/>
			<point x="410" y="692" type="line"/>
			<point x="410" y="605" type="line"/>
			<point x="635" y="605" type="line"/>
			<point x="635" y="822" type="line"/>
		</contour>
		<contour>
			<point x="663" y="822" type="line"/>
			<point x="663" y="582" type="line"/>
			<point x="663" y="482"/>
			<point x="689" y="453"/>
			<point x="781" y="453" type="curve"/>
			<point x="800" y="453"/>
			<point x="844" y="453"/>
			<point x="864" y="453" type="curve"/>
			<point x="932" y="453"/>
			<point x="962" y="479"/>
			<point x="974" y="568" type="curve"/>
			<point x="943" y="575"/>
			<point x="897" y="592"/>
			<point x="875" y="608" type="curve"/>
			<point x="872" y="561"/>
			<point x="868" y="552"/>
			<point x="851" y="552" type="curve"/>
			<point x="841" y="552"/>
			<point x="809" y="552"/>
			<point x="801" y="552" type="curve"/>
			<point x="781" y="552"/>
			<point x="778" y="555"/>
			<point x="778" y="583" type="curve"/>
			<point x="778" y="822" type="line"/>
		</contour>
		<contour>
			<point x="714" y="822" type="line"/>
			<point x="714" y="734" type="line"/>
			<point x="835" y="734" type="line"/>
			<point x="835" y="692" type="line"/>
			<point x="714" y="692" type="line"/>
			<point x="714" y="605" type="line"/>
			<point x="944" y="605" type="line"/>
			<point x="944" y="822" type="line"/>
		</contour>
		<contour>
			<point x="364" y="399" type="line"/>
			<point x="364" y="285" type="line"/>
			<point x="941" y="285" type="line"/>
			<point x="941" y="399" type="line"/>
		</contour>
		<contour>
			<point x="328" y="210" type="line"/>
			<point x="328" y="93" type="line"/>
			<point x="968" y="93" type="line"/>
			<point x="968" y="210" type="line"/>
		</contour>
		<contour>
			<point x="463" y="475" type="line"/>
			<point x="463" y="155" type="line"/>
			<point x="590" y="155" type="line"/>
			<point x="590" y="475" type="line"/>
		</contour>
		<contour>
			<point x="691" y="474" type="line"/>
			<point x="691" y="150" type="line"/>
			<point x="819" y="150" type="line"/>
			<point x="819" y="474" type="line"/>
		</contour>
		<contour>
			<point x="490" y="88" type="line"/>
			<point x="452" y="50"/>
			<point x="375" y="19"/>
			<point x="296" y="-1" type="curve"/>
			<point x="326" y="-23"/>
			<point x="376" y="-72"/>
			<point x="399" y="-98" type="curve"/>
			<point x="482" y="-68"/>
			<point x="573" y="-16"/>
			<point x="625" y="47" type="curve"/>
		</contour>
		<contour>
			<point x="672" y="28" type="line"/>
			<point x="737" y="-5"/>
			<point x="820" y="-58"/>
			<point x="859" y="-93" type="curve"/>
			<point x="981" y="-23" type="line"/>
			<point x="935" y="15"/>
			<point x="849" y="64"/>
			<point x="785" y="93" type="curve"/>
		</contour>
		<contour>
			<point x="17" y="361" type="curve"/>
			<point x="47" y="222" type="line"/>
			<point x="137" y="246"/>
			<point x="247" y="275"/>
			<point x="349" y="305" type="curve"/>
			<point x="331" y="435" type="line"/>
			<point x="218" y="406"/>
			<point x="98" y="377"/>
		</contour>
		<contour>
			<point x="34" y="672" type="line"/>
			<point x="34" y="539" type="line"/>
			<point x="341" y="539" type="line"/>
			<point x="341" y="672" type="line"/>
		</contour>
		<contour>
			<point x="128" y="854" type="line"/>
			<point x="128" y="54" type="line"/>
			<point x="128" y="41"/>
			<point x="124" y="38"/>
			<point x="112" y="38" type="curve"/>
			<point x="100" y="37"/>
			<point x="67" y="37"/>
			<point x="35" y="39" type="curve"/>
			<point x="52" y="0"/>
			<point x="68" y="-60"/>
			<point x="71" y="-96" type="curve"/>
			<point x="137" y="-96"/>
			<point x="183" y="-91"/>
			<point x="217" y="-68" type="curve"/>
			<point x="251" y="-46"/>
			<point x="261" y="-9"/>
			<point x="261" y="54" type="curve"/>
			<point x="261" y="854" type="line"/>
		</contour>
	</outline>
</glyph>
<glyph name="c7734" format="1">
	<advance width="1000"/>
	<outline>
		<contour>
			<point x="543" y="28" type="line"/>
			<point x="648" y="-9"/>
			<point x="762" y="-61"/>
			<point x="826" y="-94" type="curve"/>
			<point x="961" y="4" type="line"/>
			<point x="886" y="36"/>
			<point x="755" y="86"/>
			<point x="645" y="123" type="curve"/>
		</contour>
		<contour>
			<point x="59" y="218" type="line"/>
			<point x="59" y="92" type="line"/>
			<point x="942" y="92" type="line"/>
			<point x="942" y="218" type="line"/>
		</contour>
		<contour>
			<point x="102" y="402" type="line"/>
			<point x="102" y="276" type="line"/>
			<point x="899" y="276" type="line"/>
			<point x="899" y="402" type="line"/>
		</contour>
		<contour>
			<point x="264" y="469" type="line"/>
			<point x="264" y="167" type="line"/>
			<point x="412" y="167" type="line"/>
			<point x="412" y="469" type="line"/>
		</contour>
		<contour>
			<point x="586" y="469" type="line"/>
			<point x="586" y="167" type="line"/>
			<point x="735" y="167" type="line"/>
			<point x="735" y="469" type="line"/>
		</contour>
		<contour>
			<point x="85" y="821" type="line"/>
			<point x="85" y="590" type="line"/>
			<point x="85" y="478"/>
			<point x="120" y="446"/>
			<point x="240" y="446" type="curve"/>
			<point x="266" y="446"/>
			<point x="340" y="446"/>
			<point x="367" y="446" type="curve"/>
			<point x="456" y="446"/>
			<point x="492" y="473"/>
			<point x="506" y="566" type="curve"/>
			<point x="470" y="573"/>
			<point x="417" y="592"/>
			<point x="390" y="609" type="curve"/>
			<point x="386" y="565"/>
			<point x="379" y="555"/>
			<point x="353" y="555" type="curve"/>
			<point x="335" y="555"/>
			<point x="276" y="555"/>
			<point x="261" y="555" type="curve"/>
			<point x="226" y="555"/>
			<point x="220" y="559"/>
			<point x="220" y="591" type="curve"/>
			<point x="220" y="821" type="line"/>
		</contour>
		<contour>
			<point x="334" y="125" type="line"/>
			<point x="269" y="84"/>
			<point x="139" y="33"/>
			<point x="30" y="10" type="curve"/>
			<point x="64" y="-18"/>
			<point x="110" y="-66"/>
			<point x="135" y="-95" type="curve"/>
			<point x="242" y="-69"/>
			<point x="376" y="-17"/>
			<point x="459" y="34" type="curve"/>
		</contour>
		<contour>
			<point x="179" y="821" type="line"/>
			<point x="179" y="725" type="line"/>
			<point x="339" y="725" type="line"/>
			<point x="339" y="687" type="line"/>
			<point x="179" y="687" type="line"/>
			<point x="179" y="591" type="line"/>
			<point x="472" y="591" type="line"/>
			<point x="472" y="821" type="line"/>
		</contour>
		<contour>
			<point x="524" y="821" type="line"/>
			<point x="524" y="590" type="line"/>
			<point x="524" y="476"/>
			<point x="560" y="444"/>
			<point x="681" y="444" type="curve"/>
			<point x="707" y="444"/>
			<point x="781" y="444"/>
			<point x="808" y="444" type="curve"/>
			<point x="898" y="444"/>
			<point x="935" y="471"/>
			<point x="949" y="566" type="curve"/>
			<point x="912" y="573"/>
			<point x="859" y="591"/>
			<point x="831" y="609" type="curve"/>
			<point x="827" y="565"/>
			<point x="820" y="555"/>
			<point x="794" y="555" type="curve"/>
			<point x="775" y="555"/>
			<point x="717" y="555"/>
			<point x="702" y="555" type="curve"/>
			<point x="668" y="555"/>
			<point x="662" y="559"/>
			<point x="662" y="592" type="curve"/>
			<point x="662" y="821" type="line"/>
		</contour>
		<contour>
			<point x="595" y="821" type="line"/>
			<point x="595" y="725" type="line"/>
			<point x="770" y="725" type="line"/>
			<point x="770" y="687" type="line"/>
			<point x="595" y="687" type="line"/>
			<point x="595" y="591" type="line"/>
			<point x="905" y="591" type="line"/>
			<point x="905" y="821" type="line"/>
		</contour>
	</outline>
</glyph>
